<?xml version="1.0" encoding="utf-8"?>
<!-- Generator: Adobe Illustrator 16.0.3, SVG Export Plug-In . SVG Version: 6.00 Build 0)  -->
<!DOCTYPE svg PUBLIC "-//W3C//DTD SVG 1.1//EN" "http://www.w3.org/Graphics/SVG/1.1/DTD/svg11.dtd">
<svg version="1.1" id="Layer_1" xmlns="http://www.w3.org/2000/svg" xmlns:xlink="http://www.w3.org/1999/xlink" x="0px" y="0px"
	 width="1440px" height="612px" viewBox="0 0 1440 612" enable-background="new 0 0 1440 612" xml:space="preserve">
<path opacity="0.2" fill="#111111" enable-background="new    " d="M1324.8,587.1c2.601-1.8,6.101-3.698,9.7-5.698
	c14.3-8,34-19,25.5-35.802c-2.301-4.5-8.7-7.6-15.301-7.6s-12.801,2.9-17.399,8c-2.301,2.6-4.399,5.8-6.7,9.2
	c-3.199,4.8-6.6,9.7-10.3,12.8c-3.399,2.9-7.801,3.6-12.301,4.3c-3.8,0.602-7.8,1.3-11.3,3.3c-7.801,4.602-12.9,13.9-11.4,20.802
	c1.101,5.1,5.7,8.398,12.801,9.1c0.899,0.1,1.801,0.1,2.801,0.1c10.199,0,17.6-5.898,25.5-12.198
	C1319.1,591.3,1321.9,589.1,1324.8,587.1z M1290.8,604.4c-0.899,0-1.7-0.102-2.601-0.102c-6.6-0.7-10.699-3.5-11.699-8.1
	c-1.4-6.3,3.399-15,10.699-19.3c3.2-1.9,7.101-2.5,10.801-3.102c4.5-0.7,9.199-1.5,13-4.6c3.899-3.2,7.3-8.2,10.6-13.101
	c2.301-3.399,4.4-6.5,6.601-9c4.399-4.899,10.2-7.601,16.399-7.601c6.2,0,12,2.8,14.101,6.9c7.899,15.699-10.3,25.898-24.899,34
	c-3.601,2-7.101,3.898-9.8,5.8c-3,2-5.801,4.3-8.5,6.399C1307.8,598.6,1300.6,604.4,1290.8,604.4z"/>
<path opacity="0.2" fill="#111111" enable-background="new    " d="M1370.4,566.7c1.899-1.8,3.8-3.602,5.601-5.4l2.1-2
	c5.301-5,10.301-9.6,13.601-15.2l0.301-0.5c2.199-3.698,5.5-9.198,3.3-14.5c0-0.1-0.101-0.3-0.2-0.398
	c-2.199-4.602-10-5.3-15.199-5.8c-0.601-0.102-1.101-0.102-1.7-0.102c-3.199-0.3-6.8,0-10.8,1.102c-2.2,0.6-4.899,1.198-7.899,1.8
	c-0.899,0.2-1.801,0.3-2.801,0.3c-3.399,0-6.3-1.2-9.399-2.4c-3-1.198-6.199-2.398-9.699-2.5c-0.4,0-0.801,0-1.2,0
	c-4,0-8.899,0.302-14.101,2.602c-5.399,2.398-9.199,6.8-12.899,11c-3.7,4.3-5.7,7.898-8.2,12.5l-0.3,0.7c-2.101,3.8-4.5,7-7.3,9.6
	c-1.9,1.8-4.101,3.3-6.601,4.6c-1.301,0.7-2.601,1.301-3.801,2c-8.199,4.2-16,8.102-22.3,15c-7,7.602-12.5,20.301-9.7,29.801
	C1251.5,610,1252,611,1252.5,612h1.5c-0.7-1-1.2-2.2-1.601-3.5c-2.7-9,2.699-21.2,9.399-28.5c6.101-6.7,13.7-10.601,21.899-14.7
	c1.301-0.6,2.5-1.3,3.801-2c2.699-1.399,5-3,7-4.899c2.899-2.801,5.399-6,7.5-10l0.3-0.601c2.5-4.7,4.4-8.1,8-12.2
	c3.801-4.3,7.4-8.398,12.5-10.699c4.9-2.199,9.601-2.5,13.5-2.5c0.4,0,0.801,0,1.2,0c3.3,0.101,6.199,1.199,9.199,2.399
	c3.101,1.2,6.301,2.5,9.899,2.5c1,0,2-0.1,3-0.3c3.101-0.601,5.801-1.2,8.101-1.8c3.801-1.102,7.2-1.4,10.301-1.102
	c0.5,0,1,0.102,1.699,0.2c4.899,0.4,12.2,1.101,14.101,5c0,0.101,0.101,0.2,0.2,0.3c1.899,4.602-1.2,9.801-3.2,13.301l-0.3,0.5
	c-3.2,5.399-8.101,10-13.4,14.899l-2.1,2c-1.9,1.8-3.801,3.601-5.7,5.4c-9.8,9.398-20,19.1-29.699,26.7
	c-7.301,5.698-18.4,13.6-31,19.5h3.1c11.7-5.802,21.9-13.102,28.7-18.5C1350.4,585.8,1360.6,576.1,1370.4,566.7z"/>
<path opacity="0.2" fill="#111111" enable-background="new    " d="M1382.199,572.5c5.5-6.6,11.199-13.5,17.399-19.8
	c2.9-3,6.101-5.8,9.101-8.602c4.5-4.1,9.199-8.3,13.101-12.898c0.399-0.4,0.8-0.9,1.199-1.4c3.7-4.2,9.899-11.3,7.601-17.398
	c-0.101-0.2-0.101-0.4-0.199-0.5c-2.5-5.602-11.7-6.2-18.4-6.2c-2.1,0-4.1,0.1-5.8,0.1c-1,0-1.9,0.102-2.601,0.102
	c-5.199,0.1-10.801,1.3-16.5,3.698c-3.399,1.5-7.601,2.802-12,3.9c-1.301,0.3-2.699,0.5-4,0.5c-5.699,0-10.399-3-15.399-6.2
	c-4.2-2.7-8.5-5.5-13.601-6.398c-5.101-0.9-9-1.302-12.699-1.302c-4.101,0-7.9,0.5-11.7,1.602c-8.199,2.3-13.399,7.2-19.399,13.3
	c-5.801,6-7.9,10.6-11.101,17.6l-0.3,0.7c-2.5,5.5-5.601,10-9.4,13.8c-2.6,2.5-5.5,4.802-9,6.802c-12,7-24.3,15.3-32.8,28.698
	c-5.2,8.2-9.5,19.4-9.7,29.5h1.301c0.199-9.698,4.399-20.698,9.5-28.698c8.3-13.102,20.5-21.302,32.3-28.302
	c3.601-2.1,6.7-4.398,9.301-7c4-3.898,7.101-8.6,9.699-14.198l0.301-0.7c3.199-7.102,5.199-11.4,10.8-17.2
	c5.801-6,10.9-10.8,18.801-13c3.699-1,7.399-1.5,11.399-1.5c3.601,0,7.399,0.4,12.5,1.3c4.8,0.801,9,3.602,13.101,6.2
	c4.899,3.2,10,6.4,16.1,6.4c1.4,0,2.9-0.2,4.301-0.5c4.5-1.102,8.699-2.5,12.199-4c5.5-2.301,10.9-3.602,16-3.602
	c0.801,0,1.7,0,2.601-0.1c1.7-0.102,3.7-0.102,5.801-0.102c9.899,0,15.5,1.802,17.199,5.501c0.101,0.101,0.101,0.301,0.2,0.399
	c2.101,5.4-3.801,12.101-7.301,16.101c-0.399,0.5-0.899,1-1.199,1.5c-3.801,4.5-8.301,8.5-13,12.801c-3.101,2.8-6.2,5.6-9.2,8.699
	c-6.199,6.301-11.899,13.199-17.5,19.801c-7.899,9.5-16.101,19.398-25.601,27.3c-5.3,4.399-11.399,8.899-18,13.1h2.4
	c6-3.898,11.6-8,16.5-12.1C1366,591.9,1374.3,582,1382.199,572.5z"/>
<path opacity="0.2" fill="#111111" enable-background="new    " d="M1422.199,543.2c-8,8.5-14.801,18-21.399,27.3
	c-8.7,12.2-17.7,24.8-29.301,34.8c-2.601,2.2-5.3,4.5-8.3,6.7h2.199c2.399-1.9,4.7-3.8,6.899-5.6
	c11.7-10.2,20.801-22.802,29.5-35.102c6.601-9.2,13.4-18.8,21.301-27.1c4.8-5.102,10.199-9.7,15.5-14.2v-1.7
	C1433.1,532.9,1427.3,537.8,1422.199,543.2z"/>
<path opacity="0.2" fill="#111111" enable-background="new    " d="M1428.8,488.8c-7.399,0.602-14.8,2.7-22.101,6.3
	c-4.699,2.302-10.3,4.4-16.199,6c-1.801,0.5-3.601,0.7-5.301,0.7c-8,0-14.3-4.898-21.1-10.1c-5.5-4.2-11.101-8.602-17.801-10.3
	c-9-2.302-15.5-3.2-21.899-3.2c-4,0-7.801,0.398-11.7,1.2c-11.399,2.398-18.399,8.5-25.8,15.6c-7.801,7.6-10,13.1-13.801,22.2
	l-0.5,1.2c-4.899,11.898-12,20.198-23,27.1c-19.399,12-31.899,24.9-39.399,40.4c-3.699,7.6-6.899,16.898-8.399,26.1h1.399
	c1.5-9.2,4.699-18.3,8.199-25.5c7.4-15.3,19.801-28,38.9-39.9c11.3-7,18.5-15.5,23.5-27.698l0.5-1.2c3.8-9.3,5.899-14.4,13.5-21.8
	c7.199-7,14-13,25.1-15.302c3.801-0.8,7.5-1.198,11.4-1.198c6.3,0,12.699,0.898,21.6,3.198c6.5,1.602,12,5.9,17.4,10.102
	c3.3,2.6,6.699,5.2,10.3,7.1c3.601,2,7.4,3.3,11.601,3.3c1.899,0,3.801-0.3,5.699-0.8c6-1.6,11.7-3.7,16.4-6.1
	c7.1-3.5,14.399-5.602,21.6-6.2c0.9-0.1,2-0.2,3.101-0.3c1.899-0.2,4.2-0.4,6.601-0.602V488c-2.5,0.2-4.801,0.4-6.801,0.6
	C1430.8,488.7,1429.699,488.8,1428.8,488.8z"/>
<path opacity="0.2" fill="#111111" enable-background="new    " d="M1428.5,390.7c-1.801,3.8-1.9,7.8-0.2,11.7
	c1.8,4.198,5.601,8,10.399,10.6v-1.5c-4.199-2.4-7.6-5.8-9.199-9.6c-1.5-3.5-1.5-7.2,0.199-10.602c1.801-3.8,4.801-7,9-9.6v-1.6
	C1434,382.9,1430.5,386.4,1428.5,390.7z"/>
<path opacity="0.2" fill="#111111" enable-background="new    " d="M1397.6,384.9c-2.6,4-3.3,8.5-2.3,13.398
	c2.8,13,12.601,22.9,26.3,26.2c5.601,1.4,11.4,2.5,17.101,3.2v-1.3c-5.601-0.7-11.3-1.7-16.8-3.102
	c-13.101-3.3-22.601-12.7-25.301-25.2c-1-4.6-0.301-8.8,2.101-12.398c7.199-11.102,28.399-15.602,39.8-18.102l0.2-0.1v-1.4
	l-0.5,0.102C1425.8,368.9,1405.1,373.3,1397.6,384.9z"/>
<path opacity="0.2" fill="#111111" enable-background="new    " d="M1426.3,357.2c-0.899,0.1-1.899,0.1-2.899,0.1
	c-4.2,0-8.601-0.7-12.801-1.398c-4.399-0.7-8.899-1.5-13.399-1.5c-4.3,0-8,0.698-11.399,2.1c-13.4,5.6-20.7,31.1-20.9,43.2
	c-0.199,18.398,20.101,31,34.601,34.1c13,2.8,26.601,4.3,39.301,4.5V437c-12.601-0.1-26-1.6-39-4.4
	c-14.101-3-33.801-15.198-33.601-32.8c0.199-13.5,8.199-37.1,20-42c3.199-1.398,6.801-2,10.899-2c4.4,0,8.801,0.7,13.2,1.4
	c4.3,0.7,8.8,1.398,13,1.398c1.1,0,2.1,0,3.1-0.1c3.7-0.3,7.4-0.7,11-1c0.4,0,0.9-0.1,1.301-0.1v-1.3
	c-0.5,0-0.899,0.102-1.399,0.102C1433.699,356.5,1430,356.9,1426.3,357.2z"/>
<path opacity="0.2" fill="#111111" enable-background="new    " d="M1388.9,612h2c12.399-11.3,22.8-24.3,33-36.9
	c4.8-6,9.699-12,14.8-17.898v-2c-5.5,6.3-10.699,12.7-15.899,19.1C1412.4,587.2,1401.699,600.5,1388.9,612z"/>
<path opacity="0.2" fill="#111111" enable-background="new    " d="M1413.5,324c-8.301-9.7-16.9-19.7-24.801-18.6
	c-9.5,1.399-13.801,15.5-16.899,25.8c-0.899,3-1.7,5.5-2.399,7.398l-0.2,0.602c-13.5,33.3-32,79,10.2,102.898
	c3.8,2.2,9.699,3.5,15.899,4.9c10.199,2.3,21.8,5,25.199,11.9c1.7,3.398,1.399,7.5-0.8,12.6c-3.2,7.4-11.301,10-23.801,7.9
	c-9.199-1.602-18.399-4-27.399-6.302c-14.399-3.8-29.399-7.698-44.601-8.3c-25.899-1-41.3,9.2-52.101,34.4
	c-4.899,11.5-12.699,20.898-25.399,30.5c-6.699,5.1-13.8,9.6-20.699,14c-10.2,6.5-20.801,13.3-30.101,21.898
	c-13.101,12.102-21.899,31.4-27.101,46.302h1.4c5.199-14.7,13.699-33.5,26.5-45.302c9.3-8.5,19.8-15.198,29.899-21.698
	c6.899-4.4,14-9,20.699-14.102c12.801-9.7,20.801-19.3,25.801-31.1c10.101-23.602,24.3-33.7,47.5-33.7c1.101,0,2.199,0,3.3,0.1
	c15.101,0.602,30,4.5,44.4,8.2c9,2.3,18.199,4.8,27.5,6.4c13.199,2.3,21.699-0.7,25.3-8.602c2.399-5.5,2.7-10,0.8-13.8
	c-3.8-7.5-15.699-10.2-26.1-12.6c-6.101-1.4-11.9-2.7-15.5-4.8c-41.2-23.302-22.9-68.4-9.601-101.302l0.2-0.5c0.8-2,1.6-4.6,2.5-7.6
	c3-10,7.1-23.7,15.8-24.9c7.2-1,15.5,8.7,23.601,18.102c6.5,7.6,12.6,14.7,18.6,17.2c2.5,1,5.101,1.898,7.601,2.6v-1.4
	c-2.399-0.698-4.8-1.5-7.101-2.398C1426,338.5,1419.6,331.1,1413.5,324z"/>
<path opacity="0.2" fill="#111111" enable-background="new    " d="M950.4,24.9c2.5,0.4,5.101,0.6,7.699,0.6
	c13.801,0,28-5.1,38-13.7c3.4-2.9,7-7.1,9.5-11.8h-1.5c-2.399,4.3-5.699,8.2-8.899,10.8c-9.699,8.2-24,13.3-37.199,13.3
	c-2.601,0-5.101-0.2-7.5-0.6C940.8,22,933.9,18.3,931.4,13.4C929.9,10.3,930.1,6.8,932.1,3l0.4-0.8c0.399-0.8,0.8-1.5,1.199-2.3
	h-1.5c-0.3,0.5-0.6,1.1-0.899,1.6l-0.3,1c-2.2,4.2-2.5,8.2-0.7,11.6C932.9,19.4,940.199,23.3,950.4,24.9z"/>
<path opacity="0.2" fill="#111111" enable-background="new    " d="M940.199,38.7l0.199,0.1c0.2,0,1.102,0.3,1.801,0.5
	c1.301,0.4,2.199,0.6,2.5,0.7c4.199,0.9,8.601,1.4,13.101,1.4c23.399,0,47.601-12.9,58.8-31.4c2.101-3.5,4.301-6.8,6.7-10h-2.2
	c-2.1,2.9-4.1,5.9-6,9c-10.899,18-34.5,30.5-57.3,30.5c-4.399,0-8.601-0.4-12.8-1.4c-0.301,0-1.5-0.4-2.301-0.6
	c-1-0.3-1.601-0.5-2-0.5c-10.399-4.3-17.101-9.7-21.101-16.8c-2.399-4.2-5.6-11.7-4.899-20.2h-1.801c-0.699,8.8,2.602,16.7,5.2,21.2
	C922.3,28.7,929.3,34.3,940.199,38.7z"/>
<path opacity="0.2" fill="#111111" enable-background="new    " d="M930.3,52.8l0.2,0.1c0.199,0.1,1.699,0.5,2.8,0.9
	c2.399,0.8,3.3,1.1,3.5,1.1c6.3,1.7,12.8,2.5,19.601,2.5c32.899,0,66.699-20.5,80.3-48.8c1.399-3,3-5.9,4.601-8.6h-1.5
	c-1.5,2.6-2.9,5.2-4.2,8c-13.399,27.9-46.6,48.1-79.1,48.1c-6.601,0-13.101-0.8-19.301-2.5c-0.3,0-2-0.6-3.3-1.1
	c-1.7-0.6-2.5-0.9-2.899-0.9c-14.7-7.9-22.9-16.3-27.301-28.1C901.3,17,899,8.7,898.5,0H897c0.5,8.8,2.8,17.3,5.3,23.9
	C906.8,36.1,915.199,44.7,930.3,52.8z"/>
<path opacity="0.2" fill="#111111" enable-background="new    " d="M920.4,67.4l0.199,0.1c0.2,0,2,0.7,3.601,1.3
	c1.899,0.7,3.101,1.1,3.7,1.3c0.699,0.2,0.8,0.3,0.899,0.3c8.3,2.4,17.101,3.6,26,3.6c42.899,0,85.8-27.9,102-66.3
	c1.101-2.7,2.3-5.2,3.5-7.7h-1.5c-1.101,2.3-2.2,4.7-3.3,7.2c-16,38-58.4,65.5-100.801,65.5c-8.801,0-17.399-1.2-25.699-3.6
	c-0.301-0.1-2.7-1-4.4-1.6c-2.399-0.9-3.3-1.2-3.6-1.3c-19-11.5-28.7-23-33.4-39.5c-2.8-9.7-4.5-18.6-5.1-26.8h-1.301
	c0.7,8.3,2.399,17.3,5.2,27.1C891.1,44,901,55.7,920.4,67.4z"/>
<path opacity="0.2" fill="#111111" enable-background="new    " d="M910.5,82.2l0.199,0.1c0.199,0.1,2.601,1,4.699,1.8
	c5.301,2,5.4,2.1,5.4,2c10.3,3.2,21.2,4.8,32.399,4.8C1006,90.8,1058,55.6,1077,7c0.899-2.4,1.899-4.7,2.899-7h-1.399
	c-0.9,2.1-1.801,4.3-2.7,6.5c-18.7,48.1-70.3,83-122.601,83c-11,0-21.8-1.6-32-4.7c-0.3-0.1-3.1-1.2-5.3-2
	c-3.399-1.3-4.399-1.6-4.7-1.8c-23.101-15.1-34.5-29.8-39.399-50.8c-2.601-11-4.3-21.1-5.101-30.2h-1.3c0.8,9.3,2.5,19.4,5.101,30.5
	C875.4,51.9,887,66.9,910.5,82.2z"/>
<path opacity="0.2" fill="#111111" enable-background="new    " d="M900.699,97.1l12,4.7c12.399,3.9,25.399,5.9,38.801,5.9
	c30.199,0,61.5-10.3,88.3-28.9c26.7-18.6,47-44.3,57.399-72.3c0.801-2.2,1.601-4.3,2.5-6.4h-1.399c-0.8,1.9-1.5,3.9-2.3,5.9
	c-21.101,57.2-83.2,100.4-144.4,100.4c-13.199,0-26.1-2-38.3-5.8L901.4,96c-19.899-13.6-39.2-30.6-45.5-62.2
	c-2.5-12.3-4.101-23.5-5-33.7H849.6c0.9,10.3,2.601,21.6,5.101,34C860.9,66.1,880.4,83.2,900.699,97.1z"/>
<path opacity="0.2" fill="#111111" enable-background="new    " d="M807.5,162.9c-0.9,2.3-1.9,4.6-2.2,7
	c-0.2,1.2-0.101,2.4,0.101,3.5c0.899,4.4,3.6,8.9,6.8,11.4c2.899,2.3,7.2,3.5,12.2,3.5c5.699,0,12.199-1.6,17-4.1
	c9-4.8,15.8-15.2,21.199-23.5l0.9-1.3c20.1-30.7,57.898-36.3,91.3-41.2c35.101-5.2,79.8-15.9,113.399-53.2
	C1085.3,46,1099.4,25,1113,4.7c1-1.5,2.1-3.1,3.1-4.7h-2.1c-0.801,1.2-1.7,2.5-2.5,3.7c-14.2,21.2-27.601,41.2-44.601,60.1
	c-33.301,36.8-77.5,47.5-112.399,52.6c-33.7,5-71.9,10.6-92.5,42l-0.9,1.3c-5.3,8.2-12,18.4-20.6,22.9
	c-4.5,2.4-10.601,3.9-16.101,3.9c-4.7,0-8.5-1.1-11.101-3.1c-2.899-2.2-5.3-6.4-6.101-10.3c-0.199-0.9-0.199-1.9-0.101-2.9
	c0.301-2.2,1.2-4.4,2.101-6.5c0.301-0.7,0.601-1.3,0.801-2c3.199-8.3,7.3-16.4,10.899-23.2c1.199-2.3,2.399-4.5,3.601-6.8
	c6.3-11.8,12.899-24,16.399-37.2c2.601-9.5,3.5-19.1,2.899-28.7c-0.7-11.1-2.3-22.3-4-34.2c-1.5-10.4-3-21-3.8-31.5h-1.801
	c0.899,10.6,2.399,21.2,3.899,31.7c1.7,11.8,3.301,23,4,34.1c0.601,9.4-0.399,18.8-2.899,28.1c-3.5,13-10,25.1-16.3,36.8
	c-1.2,2.3-2.5,4.6-3.601,6.8c-3.601,6.8-7.7,14.9-10.899,23.3C808.1,161.6,807.8,162.2,807.5,162.9z"/>
<path opacity="0.2" fill="#111111" enable-background="new    " d="M797.3,173.2c0.101,3.8,1.101,7.4,2.899,11.2
	c4.7,9.5,15,11.5,22.7,11.5c9.601,0,18.899-3,24.399-5.8c2.101-1.1,4.3-2.2,6.399-3.2c10.2-5.1,20.7-10.3,30.7-16.1
	c4.3-2.5,8.5-5.4,12.5-8.2c5.601-3.9,11.3-7.9,17.699-10.8c15-7,31.101-11.9,46.7-16.6l2-0.6c29-8.8,66.3-22.4,98-50.7
	c17.601-15.6,32.7-32,48.601-49.4c5.3-5.8,10.8-11.8,16.399-17.8c5.2-5.6,10.7-11.1,16.399-16.9h-1.899
	c-5.399,5.4-10.5,10.7-15.5,16c-5.5,5.9-11,11.9-16.399,17.8C1093,51,1078,67.4,1060.4,82.9c-31.601,28.1-68.7,41.7-97.5,50.4
	l-2,0.6c-15.7,4.7-31.801,9.6-46.899,16.6c-6.399,3-12.2,7.1-17.899,11c-4.001,2.8-8.101,5.6-12.4,8.1c-10,5.7-20.5,11-30.601,16.1
	c-2.1,1.1-4.3,2.2-6.399,3.2c-5.399,2.7-14.5,5.6-23.8,5.6c-7.4,0-17.101-1.9-21.5-10.8c-1.801-3.6-2.7-7.1-2.801-10.6
	c-0.199-6.9,2.601-13.1,5.601-19.8c1.3-2.9,2.601-5.9,3.8-9.1c5.9-16.5,9-33.3,9.301-50c0.199-11.3,0-22.7-0.101-33.7
	c-0.2-19-0.5-38.6,0.899-58c0.101-0.8,0.101-1.7,0.2-2.5H817c0,0.8-0.101,1.6-0.2,2.4c-1.399,19.4-1.101,39.1-0.899,58.1
	c0.1,11,0.3,22.4,0.1,33.7c-0.199,16.6-3.399,33.3-9.199,49.6c-1.101,3.1-2.5,6.1-3.801,9C799.9,159.6,797.1,166,797.3,173.2z"/>
<path opacity="0.2" fill="#111111" enable-background="new    " d="M797.699,199.1c5.101,3.6,11.301,5.3,18.7,5.3
	c6.399,0,12.899-1.2,19.101-2.5l4-0.8c12.1-2.5,24.6-5.1,36.5-9c14.699-4.9,26.699-9.3,37.699-13.8c7.399-3.1,14.899-6.5,22.101-9.8
	c4.899-2.3,10.101-4.6,15.101-6.8c1.3-0.5,2.6-1.1,3.899-1.6c2.601-1.1,5.3-2.2,8-3.6c19.899-10.6,37.8-20.5,54.7-30.4
	c39.399-23,73.399-45.7,103.8-69.5C1139.699,42.3,1161.9,23,1182,0h-1.801c-19.801,22.5-41.699,41.5-59.699,55.6
	c-30.4,23.7-64.301,46.4-103.7,69.4c-16.899,9.9-34.8,19.8-54.7,30.4c-2.6,1.4-5.199,2.4-7.899,3.6c-1.3,0.5-2.601,1-3.899,1.6
	c-5.101,2.2-10.2,4.5-15.2,6.8c-7.2,3.3-14.601,6.7-22,9.8c-11,4.5-23,8.9-37.601,13.8c-11.8,3.9-24.3,6.5-36.399,9L835,200.8
	c-6.1,1.3-12.6,2.5-18.8,2.5c-7.2,0-13.101-1.7-18-5c-6.399-4.5-10.7-11.9-12.8-22c-2.101-10.3-1.2-20.4-0.5-25.5
	c1.3-9.9,3.6-19.9,5.8-29.6c2.101-9.3,4.3-19,5.7-28.7c1.6-11.1,2.399-21.3,2.399-31.3c0.101-13.5-1-28.2-2.101-43.8
	C796.3,11.8,795.9,6,795.5,0.2h-1.301c0.399,5.8,0.801,11.6,1.2,17.3c1.101,15.6,2.199,30.3,2.101,43.7
	c-0.101,10-0.801,20.1-2.4,31.1c-1.399,9.6-3.6,19.2-5.699,28.6c-2.2,9.7-4.4,19.7-5.801,29.7c-0.699,5.2-1.6,15.5,0.601,26
	C786.5,186.8,791,194.5,797.699,199.1z"/>
<path opacity="0.2" fill="#111111" enable-background="new    " d="M830.5,148.3c0.899,4.9,3.199,7.4,6.899,7.4
	c5.8,0,13.399-6.3,18-10.1l0.601-0.4c1.199-1,2.5-2,3.8-3.1c8.601-6.8,19.2-15.3,22-25.1c0.899-3.2,0.601-5.8-0.8-7.6
	c-2-2.7-5.9-3.2-8.7-3.2c-3.3,0-7,0.8-10,2c-14.5,6.4-28.2,22.9-31.8,38.7V148.3z M862.8,109.4c2.7-1.2,6.3-1.9,9.399-1.9
	c3.601,0,6.301,1,7.7,2.7c1.199,1.5,1.399,3.7,0.601,6.5c-2.601,9.4-13.101,17.7-21.5,24.4c-1.301,1.1-2.601,2.1-3.801,3.1
	l-0.601,0.4c-4.1,3.4-11.8,9.8-17.199,9.8c-3,0-4.801-2.1-5.601-6.2v-1.1C835.199,132.1,848.9,115.6,862.8,109.4z"/>
<path opacity="0.2" fill="#111111" enable-background="new    " d="M33.1,325.3c-2.399-10.6-16.7-21.2-31.8-30.1v1.5
	c14.7,8.7,28.2,18.8,30.5,28.8c2.6,11.4-14.4,19.4-29.3,26.5c-0.4,0.2-0.8,0.4-1.2,0.6v1.5c0.6-0.3,1.2-0.6,1.8-0.8
	C18.4,346,35.9,337.7,33.1,325.3z"/>
<path opacity="0.2" fill="#111111" enable-background="new    " d="M44.2,362.5c16.3-8.3,38.6-19.7,42.399-33.6
	c1.2-4.602,0.4-9.302-2.5-13.802C74.3,299.8,49,286.8,23.2,275c-3.101-1.4-6.101-2.8-8.9-4.1c-2.9-1.3-5.6-2.5-8.1-3.7
	c-1.6-0.7-3.2-1.5-4.8-2.2v1.5c1.4,0.6,2.801,1.3,4.2,1.9c2.5,1.2,5.2,2.4,8.101,3.7c2.8,1.3,5.8,2.6,8.899,4.1
	c25.7,11.7,50.7,24.7,60.4,39.6c2.8,4.3,3.5,8.4,2.399,12.7c-3.6,13.4-25.6,24.6-41.699,32.8c-4.801,2.4-8.9,4.5-12.101,6.5
	c-9.5,5.7-19.7,10.2-30.2,13.8v1.4C12,379.3,22.5,374.7,32.3,368.9C35.3,367,39.4,364.9,44.2,362.5z"/>
<path opacity="0.2" fill="#111111" enable-background="new    " d="M105.3,376.2c2-1,4.4-2.2,6.9-3.5
	c20.3-10.2,54.399-27.2,58.1-47.602c1.3-6.898-1.1-13.698-7-20.1c-10.6-11.5-29.1-17.7-47-23.6c-12.1-4-23.5-7.8-31.9-13.1
	C80.8,266.1,77,263.6,73,261c-15.2-9.8-32.3-20.8-48-26.9c-7.8-3-15.7-5.1-23.8-6.6v1.4c7.899,1.5,15.699,3.6,23.3,6.5
	c15.5,6,32.7,17,47.8,26.8c4,2.6,7.9,5.1,11.4,7.3c8.5,5.3,20,9.1,32.199,13.2c17.7,5.9,36.101,12,46.4,23.2
	c5.6,6.1,7.9,12.5,6.7,18.899c-3.601,19.7-37.3,36.602-57.4,46.7c-2.6,1.3-5,2.5-7,3.5c-17.3,9-50.8,15.8-77.8,21.2
	c-9.6,2-18.7,3.8-25.7,5.5v1.398c7-1.698,16.2-3.6,26-5.5C54.2,392.1,87.9,385.3,105.3,376.2z"/>
<path opacity="0.2" fill="#111111" enable-background="new    " d="M184,368.7c23.8-10.5,63.6-28,67.1-50.5
	c1.3-8.5-2.7-17-11.899-25.2c-16.101-14.3-50.101-21.3-82.9-27.9c-31.2-6.4-63.5-13-78.9-25.8c-14.5-12.2-25.899-25.1-35.1-36.2
	c-11-13.2-25.3-28.5-41-33.5v1.4c15.3,5,29.3,20,40,32.9c9.2,11.1,20.7,24.2,35.3,36.4C92.2,253.4,124.7,260,156.1,266.4
	c32.7,6.7,66.4,13.6,82.3,27.6c8.9,7.9,12.801,16,11.5,24c-3.399,21.7-42.8,39.1-66.3,49.4c-3.399,1.5-6.399,2.8-9,4
	C132.9,390.8,61.4,408.6,1.4,419.7v1.398C61.5,410,133.2,392.1,175.1,372.7C177.5,371.5,180.6,370.2,184,368.7z"/>
<path opacity="0.2" fill="#111111" enable-background="new    " d="M25.6,424.9c9.9-1.2,19.9-2.7,29.601-4
	c3.699-0.5,7.399-1,11.1-1.5c18.9-2.602,38.9-5.7,63-9.802l5.2-0.898c20-3.4,40.6-6.9,60.2-13.2c16.399-5.3,30.6-11.8,42.199-19.2
	c8.4-5.398,19.7-13.5,31.9-23.1c6.7-5.2,13.1-10.9,19-16.8c9.4-7.4,19.6-16.602,23.6-27.7c4.2-11.7,2.8-23.2-4.3-33.4
	c-9.7-13.9-29.1-27-51.899-35c-9.601-3.4-19.5-5.3-29-7.1c-2.601-0.5-5.2-1-7.801-1.5c-8.7-1.8-17.4-3.3-25.9-4.7
	c-4.9-0.8-9.8-1.7-14.8-2.5c-15.301-2.8-30.101-9-44.4-15c-7.2-3-14.6-6.1-22-8.8c-25.5-9.2-50-18.9-68.6-37.2
	c-13.4-13.2-20.4-25.6-29.2-41.3c-1-1.8-2.101-3.7-3.2-5.6c-1.3-2.3-2.7-4.9-4.2-7.7c-1.6-2.9-3.3-6-5-9.2v3.7
	c1.2,2.2,2.4,4.3,3.5,6.4c1.5,2.8,2.9,5.4,4.2,7.7c1.1,1.9,2.1,3.8,3.2,5.6c8.5,15.2,15.899,28.3,29.5,41.7
	c18.8,18.5,43.5,28.4,69.2,37.6c7.399,2.6,14.8,5.8,21.899,8.8c14.4,6.1,29.2,12.3,44.7,15.1c5,0.9,9.9,1.7,14.8,2.6
	c8.5,1.4,17.2,2.9,25.8,4.7c2.601,0.5,5.2,1,7.801,1.5c9.399,1.8,19.199,3.7,28.699,7.1c22.5,7.9,41.601,20.7,51,34.3
	c8.5,12.2,6.9,24,4.101,31.8c-3.9,10.7-13.8,19.602-23.101,27C280.5,341.2,274.2,346.9,267.5,352.1c-12.2,9.5-23.5,17.7-31.8,23
	c-11.5,7.4-25.601,13.802-41.801,19c-19.5,6.302-40.1,9.802-60,13.2l-5.199,0.9c-24,4.1-44,7.2-62.9,9.8c-3.7,0.5-7.4,1-11.1,1.5
	c-9.7,1.4-19.7,2.8-29.601,4c-7.899,1-15.7,2-23.6,2.9c-0.2,0-0.4,0-0.601,0.1v1.8c0.301,0,0.5-0.1,0.801-0.1
	C9.9,426.9,17.8,425.9,25.6,424.9z"/>
<path opacity="0.2" fill="#111111" enable-background="new    " d="M23.2,438.2c8.1-1.8,16.6-3.102,27.5-4.2
	c35.6-3.7,72.399-7.5,109-18.5c3.6-1.1,7.199-2.3,10.899-3.4c11.4-3.698,23.2-7.5,35.3-9c14.9-1.898,29.5-3.898,44.101-6.6
	c7.8-1.5,15.399-3.7,22.8-5.8c7.2-2.102,14.8-4.3,22.4-5.8c3.999-0.802,7.999-1.5,11.999-2.2c12.8-2.3,26-4.7,38.7-8.4
	C364.5,368.8,383.5,365.9,402,363.1c9-1.398,18.399-2.8,27.699-4.5c21.5-4,44.801-9.398,71.2-16.6c17.601-4.8,30-13.1,44.399-22.7
	l2.899-2c10.399-7,20.5-15.3,30.7-25.4c3.399-3.4,7.101-6.5,10.699-9.5c6.301-5.3,12.9-10.8,17.9-18c6.699-9.4,9.199-20.2,7.1-30.3
	c-2-9.6-8.199-18-17.399-23.6c-17.8-10.9-42-10.3-66.199,1.6c-5.5,2.7-10.801,5.7-16,8.6c-14,7.8-27.101,15.3-43.601,17.2
	c-25.5,2.9-51.8-2.2-77.3-7.2c-5.6-1.1-11.3-2.2-16.9-3.2c-26.3-4.7-53.3-7.4-79.399-9.9c-26.5-2.6-54-5.3-80.7-10.2l-1.3-0.2
	C160.2,196.9,67,179.8,35.5,123.7c-5.4-9.6-10.2-23.6-15.3-38.3c-5.601-16-11.5-33-18.9-47.5v3c6.9,13.9,12.4,29.9,17.7,45
	c5.2,14.8,10,28.8,15.5,38.5c31.7,56.7,125.3,73.7,181.2,83.9l1.3,0.2c26.8,4.9,54.2,7.6,80.8,10.2c26.1,2.5,53,5.2,79.3,9.9
	c5.6,1,11.3,2.1,16.899,3.2c25.601,5,52,10.1,77.7,7.2c16.8-1.9,30.101-9.4,44.101-17.3c5.199-2.9,10.5-5.9,15.899-8.6
	c23.8-11.7,47.5-12.3,64.899-1.7c8.9,5.4,14.9,13.5,16.801,22.7c2,9.7-0.4,20.1-6.9,29.2c-5,7-11.5,12.5-17.699,17.7
	c-3.601,3-7.399,6.2-10.801,9.6c-10.199,10.1-20.1,18.4-30.5,25.3l-2.899,2c-14.3,9.5-26.601,17.8-44,22.5
	c-26.399,7.198-49.601,12.6-71.101,16.5c-9.3,1.698-18.6,3.1-27.6,4.5c-18.5,2.8-37.6,5.698-56.3,11.3
	c-12.601,3.7-25.8,6.1-38.601,8.398c-4,0.7-8,1.4-11.999,2.2c-7.7,1.5-15.301,3.7-22.5,5.8c-7.301,2.102-14.9,4.4-22.7,5.802
	c-14.5,2.698-29.101,4.698-44,6.6c-12.3,1.6-24.101,5.4-35.601,9.1c-3.6,1.2-7.199,2.302-10.899,3.4c-36.4,11-73.2,14.8-108.7,18.5
	c-10.9,1.1-19.4,2.4-27.6,4.2c-4.9,1.1-9.801,1.3-14.5,1.6c-2.301,0.102-4.7,0.2-7.2,0.5v1.3c2.399-0.198,4.8-0.398,7.2-0.5
	C13.3,439.5,18.2,439.3,23.2,438.2z"/>
<path opacity="0.2" fill="#111111" enable-background="new    " d="M26.4,456.4c27.5-4.102,57.4-9.7,91.4-17.102
	c11-2.398,21.4-6.6,31.5-10.6c6.5-2.602,13.1-5.3,19.9-7.4c26.1-8.398,52.1-12.5,83-16.1c29.3-3.4,58.899-9.102,87.6-14.5
	c15.899-3,32.3-6.102,48.399-8.8c5.8-1,11.601-1.9,17.4-2.9c30.5-5,61.899-10.1,92.1-18.5c16.5-4.6,32.2-10.9,46.7-18.8
	c25.6-14,48.8-32.8,67.199-54.5c9.4-11.1,18.4-25,23.601-36.4c5.601-12.4,10.8-31.4,8.601-47.9c-2.801-20.6-23.101-29.1-40.801-26.7
	c-7.3,1-14.8,4.2-22,7.3c-4.1,1.7-7.899,3.4-11.699,4.7c-12.101,4.1-25.101,8.3-38.2,12.2c-26.5,7.7-48.8,13.6-74,12.5
	c-26.8-1.1-53.899-4.8-80.2-8.3c-20.6-2.8-41.9-5.6-63-7.2c-6.9-0.5-13.8-0.3-20.399,0c-3.7,0.1-7.5,0.3-11.2,0.3
	c-7.5,0-14.2-0.3-20.601-1.1c-19.3-2.3-39.699-6.7-59.199-12.5c-3.9-1.2-8-2.4-12-3.5c-28.801-8.4-61.4-17.9-84.2-38.9
	c-12.7-11.7-25-25.9-36.9-39.6c-3.6-4.1-7-8.1-10.5-12c-9.8-11-17.399-24.3-24.7-37C28.8,43.8,23.3,34.2,17,25.5
	C13.3,20.2,9.6,14,5.6,7.3C4.2,5,2.8,2.5,1.3,0v2.6C2.4,4.4,3.4,6.3,4.5,8c3.899,6.6,7.7,12.9,11.2,17.8
	c6.3,8.7,11.8,18.3,17.2,27.5c7.4,12.8,15,26.1,24.9,37.3c3.4,3.9,6.9,7.9,10.5,12c11.9,13.7,24.2,27.9,37,39.7
	c23,21.2,55.8,30.8,84.7,39.2c4.1,1.2,8.1,2.4,12,3.6c19.5,5.9,40,10.2,59.399,12.6c6.4,0.8,13.301,1.1,20.801,1.1
	c3.8,0,7.6-0.1,11.3-0.3c6.6-0.2,13.499-0.5,20.3,0c21,1.6,42.3,4.5,62.899,7.3c26.3,3.5,53.5,7.2,80.3,8.3
	c25.5,1.1,47.801-4.8,74.5-12.5c13.101-3.8,26.101-8.1,38.2-12.2c3.8-1.3,7.899-3,11.8-4.7c7.101-3.1,14.5-6.3,21.7-7.2
	c17.101-2.3,36.601,5.9,39.3,25.6c2.2,16.2-2.899,34.9-8.5,47.1c-5.1,11.3-14.1,25.2-23.399,36.1
	c-18.199,21.602-41.3,40.3-66.8,54.2c-14.399,7.8-30,14.1-46.399,18.7c-30.101,8.3-61.5,13.5-92,18.5c-5.8,1-11.6,1.898-17.4,2.898
	c-16.1,2.701-32.6,5.802-48.399,8.802c-28.7,5.5-58.3,11.1-87.5,14.5c-31,3.6-57,7.698-83.3,16.198c-6.8,2.2-13.5,4.9-20,7.5
	c-10,4-20.4,8.2-31.3,10.602c-34,7.398-63.801,13-91.301,17.1c-4.699,0.7-9.399,1.2-14,1.8c-3.6,0.4-7.3,0.9-10.899,1.4v1.3
	c3.6-0.5,7.3-0.898,11.1-1.398C16.9,457.7,21.7,457.1,26.4,456.4z"/>
<path opacity="0.2" fill="#111111" enable-background="new    " d="M75.2,477.1c27.399,0,51,0,77.6-12.6c3.7-1.7,7.3-3.5,10.9-5.3
	c20.899-10.3,40.699-20,65.1-20.102c2.3,0,3.9,0.102,5.2,0.2c4.3,0.2,5.3,0.3,11.8-3.6c2.9-1.8,5.4-3.9,7.7-6
	c3.1-2.8,6.1-5.4,10.1-7.2c10.9-4.9,24.601-4.6,37.899-4.4c5,0.102,9.7,0.2,14.2,0c31.601-1.3,59.4-5,92.9-12.3
	c8-1.7,16.399-3.2,24.5-4.5c22.899-3.898,46.601-7.898,67-19.898c14.101-8.302,28.801-14.802,43-21c31.4-13.802,61.101-26.7,83.7-58
	c9.7-13.5,17.3-28.2,22.5-43.8c2.8-8.3,3.601-16.7,4.399-24.9c0.801-7.6,1.601-15.5,3.899-23c1-3.3,2.5-6.5,3.9-9.6
	c1.899-4.1,3.8-8.4,4.8-13c2.399-11,0.899-20.9-4.2-28.1c-4.199-5.9-10.8-9.5-19-10.5c-20.699-2.5-39.199,6.8-57.1,15.9
	c-5.101,2.5-10.301,5.2-15.5,7.5c-28,12.4-57.601,24-84.301,24.3c-37.3,0.5-66.199-1.3-93.899-6c-4.2-0.7-8.4-1.5-12.4-2.4
	c-11.5-2.3-22.399-4.5-34.2-4c-10,0.4-20.3-0.3-30.199-0.9c-4-0.3-8-0.5-12-0.7c-14.4-0.7-31.601-1.8-49.4-4.3
	c-6.899-1-13.8-2.7-20.5-4.4c-8-2-16.3-4-24.7-4.8C168.2,166,144,132.2,120.6,99.6c-10-14.2-19.5-27.5-30.3-38.6
	C71.2,41.6,49.4,25.7,30.1,11.7C25.1,8,20.7,4.1,16.8,0H15c4.2,4.5,8.899,8.8,14.3,12.8c19.2,14,41,29.8,60,49.2
	c10.7,10.9,20.2,24.2,30.3,38.2c23.601,32.9,48,66.9,89.3,70.7c8.2,0.8,16.5,2.8,24.4,4.8c6.7,1.7,13.6,3.4,20.6,4.4
	c17.9,2.5,35.101,3.6,49.601,4.3c4,0.2,8,0.5,12,0.7c9.899,0.7,20.199,1.3,30.3,0.9c11.7-0.5,22.5,1.7,33.899,4
	c4,0.8,8.2,1.7,12.4,2.4c27.8,4.7,56.8,6.6,94.2,6c26.899-0.4,56.7-12,84.8-24.4c5.2-2.3,10.4-4.9,15.5-7.5
	c17.7-8.9,36.101-18.2,56.301-15.7c7.899,0.9,14.1,4.4,18.1,10c4.9,6.8,6.301,16.4,4,27c-1,4.5-2.899,8.7-4.699,12.8
	c-1.399,3.1-2.899,6.4-3.899,9.8c-2.4,7.6-3.2,15.6-4,23.3c-0.801,8.1-1.7,16.5-4.4,24.6c-5.1,15.5-12.6,30.1-22.3,43.4
	c-22.399,31-51.899,43.898-83.101,57.5c-14.3,6.3-29,12.7-43.199,21.1c-20.2,11.9-43.7,15.9-66.5,19.8
	c-8.101,1.4-16.5,2.802-24.601,4.5c-33.5,7.302-61.2,10.9-92.7,12.302c-4.4,0.198-9.101,0.1-14.101,0
	c-13.399-0.302-27.3-0.5-38.399,4.5c-4.2,1.898-7.4,4.698-10.4,7.398c-2.3,2.102-4.699,4.2-7.6,5.9c-6.2,3.7-6.9,3.7-11.1,3.398
	c-1.301-0.1-3-0.198-5.301-0.198C204,438,184.1,447.8,163,458.1c-3.601,1.802-7.2,3.5-10.801,5.302
	c-26.399,12.5-49.899,12.5-77,12.5c-2.8,0-5.699,0-8.699,0C43.6,476,23.1,479.3,1.199,484.3v1.4c22-4.9,42.4-8.3,65.301-8.4
	C69.5,477.1,72.4,477.1,75.2,477.1z"/>
<path opacity="0.2" fill="#111111" enable-background="new    " d="M364.199,331.1c6.801,0,14.5-1,21.4-2.8
	c7.8-2,15.4-4.8,22.7-7.398c8.399-3,17-6.102,25.899-8.2c13.101-3.102,26.7-4.8,39.801-6.5c10.3-1.3,20.899-2.7,31.3-4.7
	c16.899-3.3,40.5-9.6,49.7-26.6c3.399-6.3,4-12.4,1.6-17.3c-2.5-5.2-8.1-8.5-16-9.8c-3.399-0.5-7-0.8-10.7-0.8
	c-15.3,0-31.1,4.5-46.3,9c-11.899,3.4-24.2,7-35.8,8.2c-13.9,1.4-27.7,1.8-39.9,2.2c-2.399,0.1-4.899,0.1-7.399,0.2
	c-22.2,0.4-45.101,0.9-59,18.9c-0.9,1.2-1.801,2.5-2.601,3.9c-6.899,12-8.6,28.1,1.7,35.6C346.1,329,354.3,331.1,364.199,331.1z
	 M340.1,290c0.8-1.4,1.6-2.6,2.5-3.8c13.5-17.5,36.1-17.9,58-18.4c2.5,0,4.9-0.1,7.4-0.2c12.199-0.4,26-0.8,40-2.2
	c11.699-1.2,24.1-4.8,36-8.2c15.199-4.4,30.899-8.9,46-8.9c3.6,0,7.199,0.3,10.5,0.8c7.5,1.2,12.699,4.3,15.1,9.1
	c2.2,4.4,1.601,10.1-1.6,16.1c-8.9,16.5-32.101,22.7-48.801,25.9c-10.3,2-21,3.399-31.199,4.7c-13.101,1.699-26.801,3.399-39.9,6.5
	c-9,2.1-17.7,5.198-26.1,8.3c-7.301,2.6-14.9,5.398-22.601,7.398C378.5,328.9,371,329.9,364.3,329.9c-9.7,0-17.5-2-22.7-5.9
	C330.699,316,334.8,299.3,340.1,290z"/>
<path opacity="0.2" fill="#111111" enable-background="new    " d="M386.3,312c3.3,1.8,7.8,2.8,13,2.8c4.1,0,8.5-0.6,12.5-1.7
	c4.3-1.1,8.399-2.6,12.5-4.1c4.8-1.7,9.899-3.5,15-4.7c8.7-2,17.7-2.899,26.5-3.899c6.2-0.7,12.601-1.4,18.899-2.4
	c9.399-1.6,25.899-6,31.101-18c1.601-3.8,1.7-7.5,0.2-10.5c-1.7-3.5-5.301-6-10.5-7.4c-3-0.8-6.2-1.2-9.7-1.2
	c-9.3,0-19.101,2.8-28.601,5.5c-7.399,2.1-14.399,4.1-21.101,4.9c-5.3,0.6-10.899,1.1-17.2,1.6c-2.3,0.2-4.699,0.2-7.1,0.3
	c-2.801,0.1-5.7,0.2-8.4,0.4c-1,0.1-2,0.2-3,0.3c-4.4,0.4-8.5,0.7-12.3,1.5c-9.3,1.9-15,5.7-18.7,12.2l-0.1,0.2
	c-0.4,0.6-0.801,1.4-1,2.2C376.1,297.3,378.199,307.5,386.3,312z M379.6,290.4c0.2-0.7,0.6-1.3,0.9-1.9l0.1-0.2
	c3.4-6.2,8.9-9.7,17.8-11.5c3.7-0.8,7.8-1.1,12.2-1.5c1-0.1,2-0.2,3-0.2c2.7-0.2,5.6-0.3,8.4-0.4c2.3-0.1,4.8-0.2,7.1-0.3
	c6.2-0.5,11.9-1,17.2-1.6c6.899-0.8,14.2-2.9,21.399-4.9c9.399-2.7,19-5.4,28.2-5.4c3.399,0,6.399,0.4,9.3,1.1
	c4.801,1.2,8.101,3.5,9.7,6.7c1.3,2.7,1.3,6-0.2,9.4c-4.899,11.4-21,15.7-30.101,17.2c-6.2,1.1-12.6,1.7-18.8,2.4
	c-8.8,0.9-17.8,1.9-26.601,3.9c-5.199,1.2-10.3,3-15.199,4.7c-4,1.398-8.2,2.898-12.4,4c-3.9,1-8.2,1.6-12.2,1.6
	c-5,0-9.3-0.9-12.399-2.6C379.5,306.6,377.6,297.2,379.6,290.4z"/>
<path opacity="0.2" fill="#111111" enable-background="new    " d="M432.199,298.9L432.199,298.9c2.601,0,5.2-0.801,7.7-1.601
	c1.601-0.5,3-1,4.5-1.3c4-0.8,8.199-0.9,12.3-1c2.399-0.1,4.899-0.1,7.399-0.4c6.2-0.5,11.2-3.8,12.301-7.9
	c0.5-2,0.399-6.1-5.899-10.2c-2-1.3-4.4-2-7.2-2c-3.8,0-7.7,1.1-11.601,2.2c-2.601,0.7-5.101,1.5-7.3,1.8
	c-4.601,0.6-9.301,1.2-13.399,1.6c-1.5,0.2-3.2,0.2-4.801,0.2c-2.5,0-5.101,0.1-7.399,0.6c-2,0.5-3.2,1.4-3.601,2.8
	c-0.8,2.5,1.301,5.6,2.601,7.2C421.699,296,427.1,298.9,432.199,298.9z M416.5,284.3c0.3-0.9,1.199-1.6,2.6-1.9
	c2.2-0.5,4.7-0.6,7.1-0.6c1.601,0,3.301-0.1,4.899-0.2c4.101-0.4,8.801-1,13.4-1.6c2.3-0.3,4.899-1,7.5-1.8
	c3.8-1.1,7.6-2.2,11.199-2.2c2.5,0,4.7,0.6,6.399,1.7c4.2,2.7,6.101,5.8,5.301,8.8c-0.899,3.6-5.5,6.4-11.101,6.9
	c-2.399,0.2-4.899,0.3-7.3,0.4c-4.101,0.1-8.301,0.2-12.5,1c-1.5,0.3-3.101,0.8-4.7,1.3c-2.399,0.8-4.899,1.6-7.2,1.6v0.7
	l-0.101-0.7c-4.699,0-9.699-2.8-13.3-7.3C416.9,287.9,416.1,285.7,416.5,284.3z"/>
<path opacity="0.2" fill="#111111" enable-background="new    " d="M771.9,178.6c0.3,8,1,17.3,5,25.5
	c6.3,12.7,21.699,15.7,36.601,15.7c7.399,0,14.6-0.7,20.6-1.3l2.301-0.2c11.8-1.2,24.199-3.4,40.199-7.2
	c20.601-4.9,44.001-10.5,65.601-19.3c18.8-7.7,37.8-17.6,60-31.1c17.9-10.8,35.101-21.9,51.399-32.8c32.4-21.8,61-43.4,87.4-65.8
	c14.1-12,27.699-24.4,40.199-36.9c6.7-6.1,13.899-15.1,21-25.2h-2.2c-6.801,9.5-13.7,18-20.101,23.9
	c-12.601,12.4-26.101,24.8-40.2,36.8c-26.399,22.5-54.899,44-87.3,65.7c-16.2,10.9-33.5,22-51.3,32.8
	c-22.101,13.4-41,23.2-59.7,30.9c-21.399,8.8-44.7,14.4-65.301,19.3c-15.899,3.8-28.199,6-40,7.1l-2.3,0.2
	c-17.399,1.7-46.601,4.6-55.5-13.4c-3.899-7.9-4.5-16.9-4.8-24.8c-0.301-8.7-1.5-16.7-3.101-26c-2.801-16.5-5.601-36-4.899-56
	c0.399-11.1,1.8-22.2,4.1-32.9c4.9-21.9,8.101-41.2,7.801-63.6h-1.801c0.2,22.3-2.899,41.5-7.8,63.3c-2.399,10.8-3.8,22-4.2,33.2
	c-0.699,20.2,2.101,39.9,5,56.4C770.4,162.1,771.5,170,771.9,178.6z"/>
<path opacity="0.2" fill="#111111" enable-background="new    " d="M591.6,11.7C623.9,18,658.2,22.1,690.3,9.1
	c5.8-2.4,11-5.5,15.899-9.1h-3c-4.199,2.9-8.601,5.5-13.5,7.5C658,20.3,624,16.3,592,10l-3.7-0.7C574.8,6.7,561,4,547.699,0h-6
	C556.8,4.9,572.6,8,588,11L591.6,11.7z"/>
<path opacity="0.2" fill="#111111" enable-background="new    " d="M567.699,30.1l1.601,0.3c29.2,5.8,60.3,10,90.101,2.2
	C678,27.8,694,19.1,710.9,10c4.101-2.2,8.3-4.5,12.5-6.7c2.699-1.4,5.3-2.5,7.8-3.3h-3.9c-1.399,0.6-2.899,1.3-4.5,2.1
	c-4.2,2.2-8.399,4.5-12.5,6.7c-16.8,9.1-32.7,17.7-51.101,22.6c-29.601,7.7-60.5,3.5-89.5-2.3l-1.601-0.3
	c-26.199-5.2-53.399-10.5-76.399-25c-2-1.2-3.899-2.5-5.8-3.7H483.5c2.4,1.6,4.9,3.3,7.5,4.9C514.1,19.5,541.4,24.9,567.699,30.1z"
	/>
<path opacity="0.2" fill="#111111" enable-background="new    " d="M223.3,8c1.9-0.6,3.9-1.4,5.9-2.3c3.4-1.6,6.4-3.5,9.2-5.7h-2.2
	c-2.3,1.7-4.8,3.2-7.6,4.5c-1.899,0.9-3.8,1.7-5.7,2.3c-10.699,3.5-22.399,3.5-34.6-0.2C182.8,5,177.7,2.8,172.7,0h-2.6
	c5.601,3.4,11.601,6,17.8,7.9C200.4,11.6,212.3,11.6,223.3,8z"/>
<path opacity="0.2" fill="#111111" enable-background="new    " d="M757.8,22.9c3.399,16.5,0.5,33.3-2.601,51.1
	c-0.399,2-0.699,4.1-1.101,6.1c-3.5,20.6-2.8,42,2.101,63.7c1,4.3,2.5,8.5,4.101,12.5c1.8,4.9,3.7,10,4.5,15.1
	c1,6.3-0.899,12.7-2.7,18.9c-2.6,8.8-5.199,17.8,0.5,26.5c6.7,10,20.101,10.4,30.9,10.7c2.3,0.1,4.699,0.1,7,0.1
	c29.1,0,56.6-4.8,85.6-9.8c3.801-0.7,7.7-1.3,11.601-2c24.601-4.2,47.5-10.7,68.3-19.4c11.301-4.7,22.5-9.7,31-13.5
	c24-10.8,47.001-26.1,69.301-41l6.399-4.3c34.801-23.1,64.301-46,90.101-69.9c13.199-12.2,26-25.2,38.1-38.5
	c7.2-7.8,14.801-18.2,22-29.2h-1.6c-7,10.6-14.4,20.7-21.4,28.3c-12,13.3-24.8,26.2-38,38.4c-25.8,23.8-55.199,46.7-90,69.8
	l-6.5,4.3c-22.199,14.8-45.199,30.2-69.1,40.9c-8.5,3.8-19.7,8.8-30.9,13.5c-20.6,8.6-43.5,15.1-68,19.3
	c-3.899,0.7-7.699,1.3-11.6,2c-31.2,5.5-60.7,10.6-92.301,9.7c-10.5-0.3-23.5-0.6-29.8-10.1c-5.399-8.1-2.899-16.5-0.3-25.4
	c1.899-6.3,3.8-12.8,2.8-19.4c-0.8-5.3-2.7-10.4-4.601-15.3c-1.5-4-3.1-8.2-4-12.4c-4.899-21.5-5.6-42.7-2.1-63.2
	c0.398-2.1,0.699-4.1,1.1-6.1c3.101-17.9,6.101-34.9,2.601-51.6c-2.5-11.8-6.3-19.1-11.899-22.7H744.5c0.2,0.1,0.301,0.1,0.5,0.2
	C750.9,3.1,755.1,10.5,757.8,22.9z"/>
<path opacity="0.2" fill="#111111" enable-background="new    " d="M547,49.3c27.8,5.5,55,10.3,81.6,7.1
	c29.9-3.6,54.2-9.8,74.301-18.9c21.6-9.8,30.199-3.3,36.6,9.5c5.601,11.2,3.601,25.5,1.7,39.4c-0.5,3.6-1,7.3-1.3,10.8
	c-1.5,15.1-0.601,29.7,2.6,43.3c1.5,6.3,3.4,14.1,7.301,20c0.899,1.3,1.8,2.6,2.699,3.9c3,4.2,6.101,8.5,7.301,13.5
	c1.899,7.6-1.801,14.8-5.399,20.9c-4.7,7.9-10.601,19.3-8.4,26.9c2.5,8.7,12.2,9.9,19.601,9.9c1.601,0,3-0.1,4.301-0.1
	c12.399-0.4,25-0.6,37.1-0.7c18.2-0.2,37.101-0.3,55.601-1.6c90.5-11.9,121.699-27,138.399-35.1c2.101-1,3.9-1.9,5.7-2.7
	c26.399-11.9,53.3-27.1,84.899-47.7c37.199-24.4,67.5-48.6,92.899-73.9c12.3-12.2,24.3-25.7,35.9-40.1
	c6.898-8.6,14.398-19.5,22.898-33.3h-1.6c-8.3,13.5-15.601,24.1-22.4,32.5c-11.5,14.4-23.6,27.8-35.8,40
	c-25.3,25.3-55.6,49.4-92.7,73.8c-31.5,20.6-58.5,35.7-84.698,47.6c-1.802,0.8-3.602,1.7-5.7,2.7c-16.7,8.1-47.7,23.1-138,35
	c-18.5,1.3-37.3,1.5-55.5,1.6c-12.2,0.1-24.8,0.2-37.2,0.7c-9.6,0.4-20.1,0-22.6-8.8c-2.302-7.9,5.698-21.4,8.3-25.8
	c3.7-6.3,7.5-13.7,5.5-21.9c-1.3-5.3-4.5-9.7-7.5-13.9c-0.9-1.3-1.8-2.6-2.7-3.8c-3.8-5.7-5.6-13.4-7.1-19.5
	c-3.2-13.5-4.102-27.9-2.602-42.8c0.4-3.5,0.9-7.2,1.3-10.8c1.9-14.1,3.9-28.6-1.8-40.2c-7.898-16-19.1-18.9-38.398-10.1
	c-20,9.1-44.2,15.3-73.9,18.8c-26.2,2.7-53.2-2-80.9-7.5c-23.3-4.7-49.8-9.9-72.199-23.1c-10.601-6.2-22.399-14.5-32.899-24.9h-1.9
	C451.1,11,463.4,19.6,474.4,26.1C497,39.3,523.6,44.6,547,49.3z"/>
<path opacity="0.2" fill="#111111" enable-background="new    " d="M167,64.2c16.8,23.3,45.5,44.8,75.5,35
	c28.8-9.4,37.8-40.5,42.899-69.7c1.601-9.4,3.301-19.3,5-29.5h-1.3c-1.7,10.1-3.3,20-5,29.3C279,58.2,270.1,88.9,242,98
	c-29.3,9.5-57.4-11.6-74-34.5c-7.101-9.9-12.9-20.9-18.4-31.5c-5.5-10.9-11.3-21.9-18.6-32h-1.7c7.5,10.2,13.4,21.5,19.2,32.5
	C154,43.2,159.8,54.3,167,64.2z"/>
<path opacity="0.2" fill="#111111" enable-background="new    " d="M458,47.5c21,11.1,45.399,16.6,66.699,20.9
	c4.899,1,9.899,2,14.801,3.1c19.1,4.1,38.899,8.3,58.3,8.8c24.7,0.6,58.601,1.5,84.7-8.5l2.899-1.1c15.5-6,25.8-10,35.8,0.3
	c7.101,7.4,6.101,19.5,5,31.2c-0.399,4.1-0.699,8.1-0.699,11.8c0,25.5,5.899,44.1,18.1,56.9c0.9,1,2,1.9,3.101,2.9
	c4,3.6,8.101,7.4,7.5,12.4c-0.7,5.3-5.601,10.3-9.601,14.2c-0.699,0.7-1.3,1.3-1.899,1.9c-0.5,0.5-1.101,1.1-1.7,1.7
	c-4.699,4.8-10.6,10.8-11.899,17.5c-1,5,0,9.3,2.801,12.7c8.699,10.5,33.199,10.2,47.699,10.1c2.2,0,4.101,0,5.7,0
	c5,0.1,10.101,0.1,15.199,0.1c24.301,0,49-0.8,73.601-2.5c31.601-2.1,60.101-6.5,87-13.4c16.399-4.2,32.601-9.6,48.101-16
	c31.399-13,63.699-30.6,101.699-55.2c39.5-25.7,70.7-51.2,95.7-78c11.5-12.4,22.5-26,33.699-41.8c8-11.3,15.801-24.1,23.7-37.6
	h-2.101c-7.699,13.2-15.3,25.6-23.101,36.6c-11.199,15.7-22.1,29.3-33.6,41.6c-24.801,26.7-56,52.2-95.301,77.8
	c-37.899,24.6-70.101,42.1-101.399,55.1c-15.399,6.4-31.5,11.7-47.899,15.9c-26.801,6.8-55.2,11.2-86.601,13.3
	c-29.7,2-59.5,2.8-88.7,2.4c-1.6,0-3.5,0-5.699,0c-13.301,0.1-38.101,0.4-46.399-9.5c-2.5-3-3.301-6.7-2.4-11.2
	c1.2-6.2,6.801-12,11.4-16.6c0.6-0.6,1.1-1.1,1.699-1.7c0.601-0.6,1.2-1.2,1.899-1.9c4.2-4.2,9.301-9.4,10.101-15.3
	c0.801-6-3.899-10.2-8-14c-1.101-1-2.101-1.9-3-2.8C733.001,157.2,727.2,139,727.2,114c0-3.7,0.399-7.6,0.699-11.7
	c1.102-12.2,2.2-24.7-5.5-32.6c-10.8-11.1-22.1-6.8-37.699-0.7l-2.899,1.1c-25.8,9.9-59.5,9-84.101,8.4c-19.301-0.5-39-4.7-58-8.8
	c-4.899-1.1-9.899-2.1-14.801-3.1c-22.1-4.5-45.5-9.8-66.199-20.8c-22.5-12-40.199-28.4-49.601-45.9h-2
	C416.699,18.1,434.8,35.2,458,47.5z"/>
<path opacity="0.2" fill="#111111" enable-background="new    " d="M90.6,27.4c20,15.9,34.4,36.8,48.3,57
	c9.7,14,19.601,28.6,31.5,41.4c28.7,31.1,65.4,33.7,104.2,36.5l6.8,0.5c16.5,1.2,34,4,50.9,6.7c31.1,5,63.399,10.2,93.399,6.4
	c12.899-1.7,20-5.5,21.2-11.4c3.1-15.2-33.601-37.2-37.8-39.7c-4.8-2.8-9.7-5.6-14.5-8.2c-31.5-17.7-64.101-35.9-70.9-75.2
	c-2.3-13.5-2.6-27.4-1.899-41.3H320c-0.601,14-0.4,28,2,41.6c6.899,40.2,39.899,58.6,71.8,76.5c4.8,2.7,9.7,5.4,14.5,8.2
	c13.8,8.1,39.3,26.4,37,37.8c-1,5.1-7.7,8.5-19.7,10c-29.8,3.8-61.899-1.4-92.899-6.4c-16.899-2.7-34.5-5.6-51.1-6.8l-6.8-0.5
	c-38.4-2.7-74.8-5.3-103-35.9C160,111.8,150,97.4,140.4,83.4C126.4,63.1,112,42,91.8,26c-8.5-6.7-17.4-12.5-26.1-18.1
	c-4-2.6-8-5.2-11.9-7.9h-3.1c4.6,3.2,9.3,6.2,14.1,9.3C73.3,14.9,82.2,20.7,90.6,27.4z"/>
<path opacity="0.2" fill="#111111" enable-background="new    " d="M60.5,506.8c18.2,1.5,26.6,0.602,43.5-7.7
	c8.7-4.3,17.7-8.3,26.399-12.198c4.9-2.2,9.801-4.4,14.7-6.7c2.4-1.102,4.8-2.2,7.2-3.3c10.6-5,21.6-10.2,33-13.302
	c13.2-3.6,27-4.1,40.3-4.5c5.3-0.198,10.8-0.398,16.2-0.698c7.5-0.5,15.2-3.2,22.6-5.9c3.101-1.1,6-2.1,8.9-3
	c17-5.1,33.899-7.3,51.8-9.7l3.899-0.5c15.801-2.1,31.601-5.5,46.9-8.8c6.1-1.3,12.1-2.6,18.2-3.8c4.5-0.9,8.899-1.8,13.3-2.602
	c15.1-2.898,30.7-6,46-10.1l5.5-1.5c6.1-1.6,12.5-3.3,18.699-5.2c15.801-4.7,31.399-11.898,43.7-20.2
	c12.899-8.6,27.7-13.698,41.899-18.5c13.101-4.5,26.601-9.1,38.899-16.5c14.3-8.6,25.3-15.8,36.4-29.6c1.699-2.1,3.399-4.5,5.3-7
	c7.6-10.3,16.1-22,28.7-23.1c9.199-0.8,17.3,4.9,25.199,10.4c4.899,3.4,9.899,7,15.2,8.9c11.399,4.1,25.899,5,38.601,5.7
	c4,0.198,7.8,0.5,11.5,0.8c15.5,1.3,30.8,0.2,45.6-0.9c17.4-1.3,35.4-2.6,53.5,0.2c5.5,0.8,11.101,1.9,17.101,3.1
	c24,4.7,51.199,10.102,72.801-3.198c3.3-2,7.6-7.4,12.699-13.5c9-11,20.101-24.7,28.899-23.5c3.5,0.5,6.5,3.4,8.9,8.8
	c3,6.7,0.699,12.1-1.801,17.8c-1.101,2.6-2.3,5.4-3,8.3c-4.699,19.7-4.3,60.899,12.899,72.899c8,5.601,18.4,4.101,30.9-4.199
	c14.699-9.801,25.199-25.5,30.5-45.2c0.5-2,1.1-4,1.6-6.101c5-19.3,10.7-41.101,23.2-47.601c4.8-2.5,10.2-2.6,16.5-0.3
	c17.6,6.5,10.6,37.601,3.8,67.7c-5.5,24.399-10.8,47.5-3.1,57.699c2.398,3.2,6,5,10.8,5.301c8.5,0,16.8-22.301,28.101-53.101
	c15.101-40.899,35.8-97,65.8-116.101c6.2-3.9,14-6.9,22.301-10.1c19.699-7.6,40.1-15.4,39.1-36.8c-0.5-9.7-4.699-17.5-8.399-24.3
	c-6.699-12.2-11.5-20.9,8.101-33.8c4.8-3.1,9.8-6.2,14.601-9.1c19.3-11.7,39.3-23.7,49.3-46.1c5.7-12.8,3.399-25.1,1.101-37
	c-2.5-13.1-4.8-25.4,2.3-38.6c1.9-3.5,4.2-6.9,6.5-10.2h-2.199c-2.101,3-4.199,6.1-5.899,9.4c-7.4,13.7-4.9,27-2.5,39.7
	c2.199,11.7,4.5,23.7-1,36c-9.801,21.9-29.5,33.8-48.601,45.3c-4.899,2.9-9.899,6-14.699,9.1c-20.9,13.8-15.2,24.2-8.7,36.2
	c3.6,6.7,7.8,14.2,8.2,23.5c0.899,20.2-18.801,27.8-37.9,35.1c-8.399,3.2-16.3,6.3-22.6,10.3c-30.5,19.4-51.4,75.799-66.601,117
	c-10.301,27.899-19.199,51.899-26.399,51.899c-4.2-0.3-7.301-1.8-9.4-4.601c-7.2-9.601-2-32.199,3.4-56.3
	c7-30.899,14.199-62.801-4.9-69.801c-6.7-2.5-12.7-2.3-17.899,0.4c-13.199,6.9-19,29.1-24.101,48.8c-0.6,2.101-1.1,4.101-1.6,6.101
	C1065,357.8,1054.7,373,1040.4,382.6c-11.801,7.9-21.601,9.4-28.899,4.302c-16.601-11.5-16.8-51.701-12.2-71
	c0.7-2.802,1.801-5.5,2.9-8c2.5-5.802,5.1-11.801,1.8-19.201c-2.7-5.9-6.2-9.3-10.3-9.8c-9.7-1.3-21.2,12.8-30.5,24.2
	c-4.9,6-9.2,11.302-12.2,13.101c-21,12.899-47.899,7.701-71.5,3c-6-1.199-11.7-2.299-17.2-3.101
	c-18.3-2.8-36.399-1.399-53.899-0.198c-14.7,1.1-30,2.198-45.301,0.898c-3.699-0.3-7.5-0.5-11.5-0.8c-12.6-0.7-27-1.6-38.1-5.6
	c-5-1.802-9.7-5.102-14.7-8.701c-8.1-5.7-16.5-11.5-26.3-10.7c-13.4,1.2-22.2,13.2-29.9,23.8c-1.8,2.5-3.5,4.8-5.199,6.899
	c-10.899,13.5-21.801,20.601-36,29.201c-12.101,7.299-25.5,11.898-38.5,16.299c-14.399,4.899-29.301,10-42.399,18.701
	c-12.2,8.198-27.601,15.299-43.301,20c-6.101,1.799-12.5,3.5-18.601,5.198l-5.5,1.5c-15.199,4.101-30.1,7.101-45.8,10.102
	c-4.4,0.898-8.9,1.699-13.4,2.699c-6.1,1.199-12.2,2.5-18.2,3.801c-15.199,3.3-31,6.6-46.699,8.699l-3.9,0.5
	c-17.9,2.399-34.899,4.601-52,9.801c-2.899,0.898-5.899,1.898-9,3c-7.3,2.6-14.899,5.3-22.1,5.8c-5.4,0.399-10.9,0.5-16.2,0.7
	c-13.399,0.398-27.3,0.898-40.7,4.6c-11.6,3.2-22.6,8.4-33.3,13.4c-2.399,1.1-4.8,2.3-7.2,3.398c-4.899,2.2-9.8,4.4-14.699,6.602
	c-8.7,3.898-17.7,7.898-26.5,12.199C86.8,506,78.6,506.899,60.8,505.5c-19.7-1.601-39-0.3-59.399,2.1v1.801
	C21.6,506.5,40.9,505.2,60.5,506.8z"/>
<path opacity="0.2" fill="#111111" enable-background="new    " d="M26.8,569.9c-6.8,0.6-15.2,0.8-24,1c-0.5,0-1,0-1.5,0v1.8
	c0.5,0,1.1,0,1.6,0c8.9-0.2,17.301-0.4,24.101-1c34.3-2.8,55.2,15.6,75,40.3h2.3C83.9,586.3,62.5,567,26.8,569.9z"/>
<path opacity="0.2" fill="#111111" enable-background="new    " d="M1423.199,138.6c-25.199-6.1-60.801,43.6-64.801,49.3
	c-10.699,15.3-17.199,33-23.6,50c-4.101,11.1-8.4,22.5-13.7,33.2c-7.199,14.4-17,28-29,40.5c-8.699,9-20.8,16-32.5,22.802
	c-2.6,1.5-5.199,3-7.699,4.5c-25.601,15.3-38.801,42.198-49.2,66.198c-9.6,22.302-26.199,40.5-41.1,55.302
	c-5.101,5.1-11.101,10.198-16.801,15c-10.5,9-21.399,18.198-28.899,29.1c-7.7,11.1-11.301,21.9-11.5,35.1
	c-0.101,3,0.3,6.302,0.699,9.5c1,8.7,2,16.9-4.8,20.102c-5.101,2.398-13.5,0.898-18.301-3.4c-4.399-3.898-2.699-11.3-1-18.5
	c1.801-7.6,3.601-15.5-2-19.5c-18.5-13.3-31.3,4.4-43.699,21.4c-2.7,3.7-5.5,7.5-8.2,10.898c-2.699,3.4-5.1,6.602-7.399,9.802
	c-8.801,12.3-15.801,22.1-34.899,21.698c-8.601-0.198-13.801-1.8-16.2-5c-2.899-4-1-10.1,1-16.6c2.601-8.4,5.5-17.8-2.699-23.3
	c-11.5-7.8-25,10.398-34.801,23.6c-3.3,4.4-6.101,8.2-8,9.8c-19.3,16.2-50,20.4-71.5,9.802c-16-7.9-24.3-22.602-23.399-41.302
	c0.101-2.5,0.101-5,0.101-7.398c-0.101-8.8-0.101-17,6.3-24c2-2.102,4.2-4,6.399-5.8c4.301-3.5,8.4-6.9,8.5-11.2
	c0-3.2-2.1-6.5-6.6-10.3c-3.4-2.9-7.601-4.7-11.801-6.4c-7.699-3.3-14.399-6.1-12.601-15.2c0.601-3,1.7-5.7,2.801-8.3
	c2.899-7,5.5-13.1-6.899-19.1c-12.5-6.102-43.5-8.7-59.2,0.398c-6,3.5-9.2,8.3-9.601,14.3c-0.5,8.302,2.101,17.4,4.601,26.302
	c4.101,14.5,8,28.198-1.2,37.8c-4.899,5.1-9.1,1.6-15.5-4.602c-6.399-6.1-14.3-13.698-24-4.1c-1.8,1.8-3.199,3.5-4.399,5
	c-3,3.8-4.899,6.2-11.399,7.3c-4.101,0.7-8.3,0.7-12.4,0.8c-5.5,0.102-11.199,0.2-16.898,1.7c-17.7,4.7-29.9,6.2-47.301,1.3
	c-6.101-1.698-11.899-5.398-17.399-9c-7.7-5-15.7-10.1-25.101-10.3c-11.5-0.2-22.5,7.102-33.199,14.2c-6.2,4.1-12,8-17.801,10.4
	c-9.899,4.1-19.199,0.198-29.101-3.802c-5.101-2.1-10.399-4.3-15.8-5.3c-38.101-7.2-70.4-4.898-111.8-0.898
	c-5,0.5-10.2,0.6-15.2,0.8c-10.6,0.3-21.5,0.7-31.8,4c-14.601,4.8-28,15.8-39.7,25.6l-2.3,1.9c-16.2,13.398-23.3,11.5-42.399,6.3
	l-1.5-0.4c-17.9-4.8-34.801-3.6-46.601,3.4c-5.899,3.5-11.5,7.7-16.899,11.8c-5.9,4.4-12,9-18.5,12.7c-3.2,1.8-6.7,3.5-10.5,5.3
	c-9.9,4.8-20.801,10.102-27.5,18.102h2.399C124,604.7,134,599.8,143.3,595.4c3.8-1.802,7.399-3.602,10.6-5.4
	c6.7-3.8,12.8-8.4,18.7-12.8c5.4-4,10.9-8.2,16.8-11.7c11.3-6.7,27.8-7.9,45.2-3.2l1.5,0.4c19.1,5.2,27.1,7.3,44-6.7l2.3-1.9
	c11.7-9.698,24.899-20.6,39.2-25.3c10.1-3.3,20.899-3.6,31.3-3.898c5.1-0.2,10.3-0.302,15.3-0.802c41.3-4,73.399-6.3,111.3,0.9
	c5.2,1,10.4,3.1,15.5,5.2c9.8,4,19.9,8.2,30.5,3.8c6-2.5,11.9-6.4,18.101-10.6c10.301-6.802,20.899-13.9,31.601-13.9h0.5
	c8.899,0.2,16.6,5.2,24.1,10c5.7,3.6,11.5,7.4,17.9,9.2c17.8,5,30.2,3.398,48.3-1.3c5.5-1.5,11.101-1.5,16.4-1.602
	c4.1-0.1,8.398-0.1,12.699-0.8c7.199-1.2,9.5-4.2,12.5-7.9c1.199-1.5,2.5-3.1,4.199-4.898c8.4-8.4,14.801-2.3,21.5,4.1
	c5.7,5.5,11.602,11.102,18,4.5c9.9-10.3,5.7-25.1,1.7-39.5c-2.5-8.7-5-17.7-4.5-25.7c0.3-5.398,3.3-9.698,8.7-12.898
	c15.2-8.9,45.399-6.4,57.5-0.4c10.8,5.3,8.899,9.9,6,16.8c-1.101,2.602-2.3,5.5-2.9,8.7c-2.1,10.5,6,13.9,13.7,17.2
	c4,1.7,8.101,3.4,11.3,6.1c4,3.4,6,6.302,6,8.9c0,3.5-3.6,6.5-7.8,9.9c-2.2,1.8-4.6,3.698-6.6,5.898c-6.9,7.5-6.9,16.102-6.801,25.2
	c0,2.4,0,4.9-0.101,7.3c-0.899,19.5,7.8,34.8,24.4,43c22.1,10.9,53.7,6.602,73.5-10c2.1-1.7,5-5.6,8.3-10.1
	c8.9-12,22.3-30.102,32.4-23.2c7.1,4.8,4.6,12.8,2,21.4c-2.102,6.898-4.102,13.5-0.801,18.198c2.699,3.7,8.399,5.5,17.601,5.7
	c0.399,0,0.7,0,1.1,0c19.2,0,26.4-9.898,35.4-22.5c2.3-3.2,4.6-6.398,7.3-9.7c2.8-3.398,5.6-7.3,8.3-11
	c12.4-17.1,24.2-33.198,41.2-21c4.6,3.302,3,10.302,1.3,17.602c-1.8,7.7-3.6,15.6,1.601,20.2c5.399,4.8,14.5,6.398,20.301,3.698
	c8-3.8,6.899-13,5.8-22c-0.399-3.3-0.8-6.398-0.699-9.3c0.3-12.8,3.699-23.3,11.199-34.1c7.4-10.7,18.2-19.9,28.601-28.8
	c5.699-4.9,11.699-10,16.899-15.102c15-15,31.7-33.3,41.4-55.898c10.3-23.802,23.3-50.4,48.5-65.4c2.5-1.5,5.1-3,7.699-4.5
	c11.801-6.8,24-13.9,32.899-23.1c12.2-12.7,22-26.5,29.301-41c5.399-10.7,9.601-22.2,13.801-33.3c6.3-17,12.8-34.5,23.398-49.6
	c14.2-20.3,43.4-53.4,62.9-48.6c10.199,2.5,11.899,12.7,13.6,23.4c0.602,3.9,1.301,7.9,2.301,11.6v-8.3
	c-0.199-1.2-0.399-2.4-0.601-3.6C1436.4,152.6,1434.6,141.4,1423.199,138.6z"/>
<path opacity="0.2" fill="#111111" enable-background="new    " d="M1.3,589.7v1.3c13.8-0.4,28.2,1.2,41.8,7
	c7.8,3.3,14.9,8.3,21.8,14H67c-7.3-6.2-14.9-11.6-23.3-15.2C29.8,590.9,15.2,589.2,1.3,589.7z"/>
<path opacity="0.2" fill="#111111" enable-background="new    " d="M808.699,558.2l-0.3-0.8c-0.899-2.4-1.7-4.9-2.399-7.302
	c-3.4-11.1-6.601-21.5-21.4-22.1c-8.3-0.3-12.3,5-16.5,10.7c-3.8,5.1-7.699,10.398-15,12c-6.1,1.398-11.899,1.6-17.399,1.898
	c-8.601,0.4-16.7,0.7-25.601,4.9c-24.1,11.2-51.6,10.2-72.899,8c-21.601-2.2-38.7-2-61.899,5.6c-4.601,1.5-9.5,3.5-14.7,5.602
	c-14.199,5.8-30.3,12.3-43.699,10.1c-7.801-1.3-15.4-8.898-22.801-16.398c-5.3-5.302-10.8-10.802-16.199-13.802
	c-35-19.398-82.3-10.698-120.3-3.698l-5.9,1.1c-21,3.8-36.6,10.1-53.899,21.7c-5.2,3.398-10,7.398-14.7,11.3
	c-8.3,6.8-16.9,13.8-27.2,17.9C249,607.6,242.1,609.3,235.4,611c-1.5,0.4-2.899,0.7-4.399,1.1h5.399c6.5-1.6,13.101-3.398,19.9-6
	c10.6-4.1,19.2-11.198,27.6-18.1c4.601-3.8,9.4-7.8,14.5-11.2c17.2-11.5,32.7-17.7,53.4-21.5l5.899-1.1
	c37.8-6.9,84.8-15.602,119.399,3.6c5.3,2.9,10.7,8.3,15.899,13.602C500.6,579,508.4,586.8,516.6,588.1
	c13.801,2.2,30-4.398,44.399-10.198c5.2-2.102,10.101-4.102,14.601-5.602c23-7.5,40-7.7,61.399-5.5c21.5,2.2,49.2,3.3,73.601-8.1
	c8.7-4.102,16.7-4.4,25.101-4.7c5.601-0.2,11.399-0.5,17.7-1.9c7.8-1.8,11.899-7.3,15.8-12.5c4-5.5,7.601-10.198,14.601-10.198
	c0.199,0,0.5,0,0.699,0c13.801,0.6,16.7,10.1,20.101,21.198c0.7,2.4,1.5,4.9,2.399,7.4l0.301,0.8c6.699,18,14.3,38.4,28.101,51.7
	c0.6,0.6,1.199,1.1,1.699,1.6h2c-0.899-0.898-1.899-1.698-2.8-2.6C823,596.3,815.4,576.1,808.699,558.2z"/>
<path opacity="0.2" fill="#111111" enable-background="new    " d="M1408,101.6c-1.4,1.7-2.601,3.3-3.801,4.6
	c-20.699,24.1-39.301,45.9-57.301,69c-13.5,17.3-19.699,37.1-25.699,56.3s-12.199,39.1-25.801,56.3
	c-10,12.7-26.3,25.8-42.399,34.102c-4.8,2.5-10.199,4.1-15.399,5.698c-6.699,2-13.601,4.102-19.601,8.102
	c-7.399,5-13.199,13.1-18.399,20.3l-0.899,1.3c-5.9,8.2-9.5,16.2-13.301,26.5c-12.3,32.9-26.899,66.102-58.699,78.4
	c-4.301,1.7-10.4,2.6-16.9,3.7c-10.199,1.6-20.8,3.3-26.3,8c-6.7,5.698-6.301,11.1-5.801,16.8c0.301,3.898,0.601,7.898-1.3,12.3
	c-4.3,10.1-10.8,12.1-18.2,14.4c-7,2.198-15,4.6-22.899,14c-3.399,4-10.8,6.1-18.399,5.398c-6.5-0.7-11.699-3.3-13.699-7.1
	c-3.301-6-1-14.9,1.5-24.3c3.1-12.102,6.3-24.5-2.301-31.9c-5.5-4.7-11-6.6-16.199-5.6c-10,1.898-17.601,13.6-23.601,24.698
	c-3.301,6-6.399,12.4-9.399,18.5C938,542,922.3,574,884,575c-10.9,0.3-31.801-1.8-40.801-11.6c-3.399-3.7-4.8-8.102-4.199-13.302
	c0.5-4.698,2.1-8,4.8-10c5.399-4,14.5-2.198,23.2-0.398c5.199,1,10.1,2,14.1,1.8c18.7-1.2,30.2-12.6,33.4-33.2
	c2.5-16.5-3.7-20.8-11.5-26.2c-4.2-2.898-9.101-6.3-13.601-12.1c-4.101-5.3-5.7-10.4-4.801-15.5c2-11.9,17.3-21.9,32.101-31.5
	c11.399-7.4,22.199-14.5,27.301-22.4c6.5-10,7.699-17.198,3.6-21.5c-9.899-10.398-47.899,1-60.699,8.5C861,402.7,831,406,810.1,406
	h-0.6c-24.9-0.1-34.5-7.1-48.9-17.8c-3.8-2.8-8.1-6-13-9.3c-17.399-11.7-32.8-11.7-43.5-0.2c-11.6,12.6-10.899,35.898-10.399,52.8
	c0.101,2.1,0.101,4.1,0.2,6c0.1,4.5,0.699,9.6,1.5,15c1.6,12.6,3.5,26.9-2,36.6c-3.7,6.4-8.9,10.5-15.4,11.9
	c-20.699,4.6-50.1-16.2-65.899-27.3c-1.101-0.8-2.101-1.5-3-2.2c-23.101-16.1-48.399-29.3-76.899-16.9
	c-7.899,3.4-15.3,8.5-22.5,13.4c-15.8,10.8-30.601,21-50.5,16c-6.7-1.7-13.101-5.2-19.399-8.6c-5.5-3-11.2-6.102-17-8
	c-11.4-3.602-21.2-0.802-31.601,2.1c-4.6,1.3-9.399,2.6-14.399,3.4c-5.7,0.898-11.4,1.6-17.5,2.3c-24.101,3-49.101,6-67.8,20.2
	c-4.2,3.198-8.2,6.898-12.2,10.6c-5.9,5.5-12.101,11.2-18.8,15c-10.601,6.1-17.601,2.8-26.4-1.3c-2.8-1.3-5.8-2.7-9.1-3.9
	c-15.5-5.5-25.9-3.898-38.4,5.9c-11.5,9-17.7,10.5-33.8,13.6c-10.601,2-30.2,5.7-37.2,18.4c-0.9,1.7-1.8,3.6-2.6,5.5
	c-1.9,4.398-3.9,9-7.7,11.7c-5.4,3.898-10-0.7-14.5-5.102c-1.4-1.398-2.7-2.7-4-3.7C66,546.2,30.8,540,1.199,541.1v1.302
	C30.5,541.3,65.4,547.5,86,563.2c1.199,0.898,2.5,2.2,3.899,3.6c4.4,4.4,9.9,9.8,16.2,5.2c4.1-3,6.1-7.7,8.1-12.3
	c0.801-1.9,1.601-3.7,2.5-5.3c6.7-12.2,25.9-15.802,36.301-17.7c16.3-3.102,22.6-4.602,34.399-13.8c12.3-9.602,22-11.102,37.2-5.7
	c3.3,1.2,6.2,2.5,9,3.8c8.8,4.1,16.4,7.6,27.6,1.2c6.801-3.9,13-9.7,19-15.2c3.9-3.6,8-7.4,12-10.5c18.4-14,43.2-17,67.101-20
	c6.1-0.7,11.899-1.5,17.6-2.3c5.1-0.8,9.9-2.102,14.6-3.5c10.2-2.9,19.801-5.602,30.801-2.102c5.8,1.802,11.399,4.9,16.8,7.9
	c6.301,3.5,12.801,7,19.7,8.7c20.399,5.1,36.3-5.8,51.601-16.2c7.1-4.9,14.5-9.9,22.199-13.3c26.399-11.5,49.301-1.602,75.601,16.7
	c0.899,0.698,2,1.398,3,2.1c16,11.3,45.7,32.2,66.899,27.5c6.899-1.5,12.399-5.8,16.301-12.6c5.699-10,3.8-24.602,2.199-37.4
	c-0.699-5.3-1.399-10.4-1.399-14.8c0-1.9-0.101-3.9-0.2-6c-0.5-16.7-1.199-39.7,10-51.9c13-14.1,29.9-7.6,41.801,0.4
	c4.899,3.3,9.199,6.5,13,9.2c14.699,10.8,24.399,18,49.699,18.1c21.101,0,51.801-3.1,78.101-18.5c14.601-8.5,50.399-17.7,59-8.7
	c3.601,3.8,2.301,10.4-3.8,19.8c-5,7.7-15.601,14.602-26.899,22c-15,9.802-30.5,19.9-32.601,32.4c-0.899,5.5,0.699,10.9,5.101,16.5
	c4.6,6,9.5,9.4,13.8,12.4c7.8,5.398,13.399,9.3,11,24.898c-3.101,19.8-14.2,30.9-32.101,32c-3.8,0.2-8.601-0.7-13.699-1.7
	c-9.101-1.8-18.4-3.698-24.301,0.7c-3,2.2-4.8,5.8-5.3,10.9c-0.601,5.5,0.899,10.3,4.601,14.3c9.3,10.1,30.6,12.3,41.8,12
	c39.1-1,54.899-33.3,70.2-64.6c3-6.2,6.1-12.5,9.399-18.5c5.899-10.9,13.199-22.302,22.699-24.102c4.9-0.898,9.9,0.9,15.101,5.3
	c8,6.9,4.899,18.9,1.899,30.602c-2.5,9.7-4.8,18.8-1.3,25.2c2.3,4.198,7.8,7.1,14.7,7.8c8.199,0.8,15.899-1.5,19.5-5.8
	c7.699-9.102,15.399-11.5,22.3-13.602c7.801-2.398,14.5-4.5,19.101-15.1c2-4.801,1.699-8.9,1.399-13c-0.399-5.602-0.8-10.4,5.4-15.7
	c5.199-4.4,15.6-6.101,25.6-7.7c6.5-1,12.7-2,17.101-3.7c32.3-12.398,47.101-45.898,59.5-79.1c3.8-10.2,7.3-18.101,13.101-26.2
	l1-1.3c5.1-7.101,10.899-15.101,18.1-19.9c5.801-3.898,12.601-6,19.2-8c5.3-1.6,10.7-3.199,15.7-5.8
	c16.3-8.399,32.699-21.7,42.8-34.5c13.7-17.4,20-37.4,26-56.7c5.899-19,12.1-38.8,25.399-55.8c18-23,36.601-44.9,57.301-68.9
	c1.1-1.3,2.399-2.9,3.8-4.6c7.5-9.1,18.2-22.3,29.7-26.4v-1.4C1426.699,78.7,1415.699,92.3,1408,101.6z"/>
<path opacity="0.2" fill="#111111" enable-background="new    " d="M1396.3,18.1c6.399,0,11.899-4.3,15.5-7.9
	c2.899-2.9,5.399-6.5,7.5-10.2h-1.5c-1.899,3.4-4.3,6.6-6.899,9.2c-2.399,2.4-4.899,4.3-7.301,5.6c-2.5,1.3-4.899,1.9-7.199,1.9
	c-4.899,0-9.301-2.9-12.899-8.6c-1.601-2.5-2.601-5.4-3-8.1h-1.301c0.399,3,1.5,6.1,3.2,8.8C1386.199,15,1390.9,18.1,1396.3,18.1z"
	/>
<path opacity="0.2" fill="#111111" enable-background="new    " d="M1252.699,430.1c8.601,0,17.899-1.8,26.199-3.3
	c4.301-0.8,8.301-1.5,11.801-2c16-2,26.199-17.898,28.101-32.7c1.399-10.698,0.101-48-9.899-60c-2.101-2.5-4.5-3.8-7.101-3.898
	c-6.899-0.3-17,6.8-25,12.5c-2.7,1.898-5.2,3.7-7.2,4.898c-6.899,4.102-16.1,12.5-24.1,21.802c-7.9,9.198-32.2,40.3-13.601,56.5
	C1236.5,428.1,1243.4,430.1,1252.699,430.1z M1246.4,368.3c7.8-9.1,17.101-17.5,23.8-21.5c2-1.2,4.5-2.898,7.301-5
	c7.699-5.5,17.3-12.3,23.8-12.3h0.399c2.2,0.1,4.301,1.3,6.101,3.4c9.801,11.698,11,48.398,9.601,59c-1.8,14.3-11.7,29.698-27,31.6
	c-3.5,0.4-7.601,1.2-11.899,2c-8.2,1.5-17.5,3.3-25.9,3.3c-8.899,0-15.5-1.898-20.1-5.898C1215,407.5,1238.699,377.2,1246.4,368.3z"
	/>
<path opacity="0.2" fill="#111111" enable-background="new    " d="M1244.4,416.3c3.399,2.602,8,3.9,14.101,3.9
	c6.8,0,14.3-1.602,20.899-3.102c2.699-0.6,5.199-1.198,7.5-1.5c11.899-2.1,18.601-14,20.699-23.698c2-9.2,1.7-33-4.699-42.9
	c-1.7-2.6-3.7-4.2-6-4.7c-3.899-0.8-9.5,0.9-15.5,4.602c-2.399,1.5-4.7,3.1-6.7,4.5c-1.3,0.898-2.399,1.698-3.399,2.398
	c-2.3,1.5-4.899,3.5-7.5,5.9c-3.699,3.3-7.601,7.5-11.601,12.3c-9.399,11.5-14.399,23.4-13.399,31.9
	C1239.199,410.2,1241.1,413.7,1244.4,416.3z M1253.1,374.9c3.9-4.802,7.7-8.802,11.4-12.2c2.6-2.3,5.1-4.3,7.399-5.8
	c1-0.7,2.199-1.5,3.5-2.4c2-1.4,4.3-3.1,6.699-4.5c4.801-2.9,9.301-4.6,12.601-4.6c0.699,0,1.301,0.1,1.801,0.198
	c2,0.4,3.699,1.802,5.199,4.102c6.199,9.6,6.5,32.898,4.5,41.898c-2.199,9.9-9.101,20.802-19.601,22.602c-2.3,0.398-4.8,1-7.5,1.5
	c-6.5,1.398-13.899,3.1-20.6,3.1c-5.7,0-10.101-1.2-13.2-3.6c-3.101-2.3-4.8-5.5-5.3-9.4C1239,397.6,1243.9,386.1,1253.1,374.9z"/>
<path opacity="0.2" fill="#111111" enable-background="new    " d="M1257.199,408.7c1.899,1.1,4.301,1.7,7.199,1.7
	c5.2,0,11.2-1.802,15.9-3.302c1-0.3,1.899-0.6,2.8-0.8c7.4-2.2,11.5-10.1,13.2-14.6c3.3-8.4,4.1-26.7-4.301-31.102
	c-3.3-1.8-7.6-1.698-11.5,0.4c-2.699,1.4-5.3,3.3-7.399,4.9l-0.301,0.198c-1.699,1.302-3.6,2.9-5.6,4.802
	c-2.7,2.6-5.301,5.6-8.5,9.898c-5.101,6.9-7.7,15.102-6.5,20.9C1252.9,404.8,1254.5,407.1,1257.199,408.7z M1259.8,381.5
	c3.101-4.2,5.7-7.1,8.3-9.7c1.9-1.8,3.801-3.5,5.5-4.7l0.301-0.198c2.101-1.5,4.601-3.4,7.199-4.802c1.9-1,3.801-1.5,5.7-1.5
	c1.601,0,3.2,0.4,4.601,1.102c7.3,3.898,6.8,21.398,3.699,29.398c-1.6,4.302-5.399,11.7-12.3,13.802
	c-0.899,0.3-1.801,0.5-2.801,0.898c-4.699,1.4-10.5,3.2-15.5,3.2c-2.601,0-4.8-0.5-6.5-1.5c-2.3-1.3-3.8-3.4-4.3-6.2
	C1252.4,395.9,1254.9,388.1,1259.8,381.5z"/>
<path opacity="0.2" fill="#111111" enable-background="new    " d="M1270.199,401.1c0.101,0,0.301,0,0.399,0
	c4.7,0,9.801-5.1,13.2-8.5c0.399-0.398,0.8-0.8,1.1-1.1c5-4.9,6.7-8.5,2.301-14.6c-1.301-1.802-3.399-4.2-6.101-4.2
	c-0.5,0-0.899,0.1-1.399,0.2c-1.5,0.5-3.301,1.5-5.301,3.398c-1.3,1.2-2.5,2.5-3.6,3.7c-2.101,2.3-3.7,4.5-5.4,7.4
	c-1.6,2.8-1.6,7.5,0,10.5C1266.5,399.9,1268.1,401,1270.199,401.1z M1266.5,388.1c1.6-2.8,3.1-5,5.199-7.198
	c1.101-1.2,2.301-2.4,3.5-3.602c1.899-1.7,3.5-2.7,4.801-3.1c0.399-0.102,0.699-0.102,1-0.102c2.1,0,3.899,2.102,5,3.602
	c3.899,5.398,2.6,8.2-2.101,12.898c-0.399,0.302-0.7,0.7-1.101,1.102c-3.3,3.3-8.399,8.3-12.601,8.1c-1.601-0.1-2.8-0.898-3.699-2.5
	C1265.199,394.7,1265.199,390.5,1266.5,388.1z"/>
<path opacity="0.2" fill="#111111" enable-background="new    " d="M1434.699,219.2c-0.399-1.4-0.899-3-1.399-4.8
	c-4-13.9-10.601-37-22.899-41.7c-4.4-1.7-9.2-0.8-14.2,2.5c-17.399,11.3-28.101,31.8-37.601,51.8c-2.6,5.5-5.399,11.1-8.1,16.5
	c-8.2,16.5-16.601,33.5-22,51.2c-5.801,19-3.801,41-1.801,62.398c0.899,9.2,1.699,17.802,1.899,26.2c0,1.8,0.101,3.7,0.2,5.602
	c0.5,13.3,1.1,28.3-8.5,38.3c-10.9,11.3-29.9,12.3-45.101,13c-1.399,0.1-2.8,0.1-4.101,0.2l-2.8,0.198
	c-31.801,1.802-64.7,3.602-89.899,25c-3.4,2.9-6.9,5.802-10.301,8.602c-14.699,12-29.801,24.398-39.699,41.1
	c-6.4,10.9-9.601,19.2-7.601,31.3c0.3,2,0.8,4.102,1.199,6.102c2,9.3,4,18.898-2.399,26.8c-9.899,12.2-33.601,15.5-46.101,6.4
	c-2.601-1.9-4.699-4.302-6.699-6.602c-4.899-5.6-9.601-10.898-20.7-5.398c-10.399,5.198-19.899,13.5-29.1,21.6
	c-6.602,5.7-13.301,11.6-20.4,16.4h2.301c6.6-4.602,12.8-10.102,18.899-15.4c9.101-8,18.601-16.3,28.8-21.4
	c10.2-5.1,14.101-0.6,19.101,5.102c2.101,2.3,4.2,4.8,6.899,6.7c13.301,9.6,37.4,6.198,47.9-6.7c6.8-8.3,4.699-18.3,2.6-27.9
	c-0.399-2.1-0.899-4.1-1.199-6.1c-2-11.7,1.101-19.7,7.399-30.4c9.8-16.5,24.8-28.898,39.399-40.8c3.4-2.8,6.9-5.7,10.301-8.6
	c24.899-21.2,57.5-23,89.1-24.7l2.801-0.2c1.3-0.1,2.699-0.1,4.101-0.2c15.399-0.8,34.601-1.7,45.899-13.398
	c10-10.4,9.399-25.701,8.899-39.201c-0.101-1.899-0.101-3.799-0.199-5.601c-0.2-8.399-1-17.1-1.9-26.198
	c-2-21.201-4-43.102,1.7-61.9c5.399-17.5,13.8-34.5,22-51c2.699-5.4,5.5-11,8-16.5c9.399-19.9,20-40.2,37.101-51.3
	c4.699-3,9.101-3.8,13.101-2.3c11.699,4.4,18.199,27.2,22.1,40.8c0.5,1.8,1,3.4,1.4,4.8c1.1,3.7,1.5,8.2,1.8,12.6
	c0.399,5.6,0.899,11.4,2.899,15.8c0.2,0.4,0.399,0.7,0.601,1.1v-3.2c-1.399-4-1.8-8.9-2.2-13.8
	C1436.199,227.6,1435.9,223.1,1434.699,219.2z"/>
<path opacity="0.2" fill="#111111" enable-background="new    " d="M1438.3,0c-10.101,12.1-19,24.9-23.8,37.8
	c-12.801,34.5-34.4,80.5-64.301,104c-4.101,3.3-8.699,5.5-13,7.7c-7.899,4-15.5,7.7-20.601,17c-6.3,11.3-5.899,23.3-5.5,35
	c0.301,10.2,0.601,20.8-3.5,30.8c-7.199,17.6-18,39-37.199,48.8c-7.601,3.9-15.399,6.9-23.101,9.9c-15.101,5.9-30.8,12-43.5,24.4
	c-13.8,13.398-20.101,32.698-26.3,51.3c-4.2,12.898-8.601,26.2-15.4,37.2c-9.699,15.898-25.5,36.198-46,43.198
	c-5.3,1.802-10.699,2.7-16,3.602c-7.699,1.3-15.6,2.7-23.199,6.8c-5.601,3.1-10.399,7.2-15,11.2C1058,472.1,1054,475.6,1049.5,478.4
	c-7.2,4.398-12.601,6-16.601,4.8c-4.899-1.5-7.301-6.9-10.2-13.102c-3.399-7.398-7.3-15.8-16.399-19.198
	c-12.3-4.5-21.2,0.5-30.601,5.898c-2.399,1.4-4.899,2.8-7.5,4.102c-11.5,5.698-22.899,6.3-36.5,6.5
	C921.5,449.1,935.9,437.9,949.8,427.1c4-3.1,7.8-6.1,11-9.198c9.601-9.302,12.7-26.9,7.5-42.802c-4.601-14.1-14.3-23.3-26.601-25
	c-11.801-1.698-24.899,3.602-36.399,8.2c-4.2,1.7-8.2,3.4-12,4.602l-2,0.6c-19.7,6.5-40,13.2-59.899,16.5c-16.2,2.7-35,4.3-52.5-4.8
	c-2.601-1.3-5.9-3.2-9.801-5.4c-23.899-13.398-68.3-38.5-90.199-26.7c-7.5,4.102-11.7,12.2-12.5,24.102
	c-1.7,25.1,5.699,48.898,12.899,72.1c2.899,9.3,8.7,31.7,0.2,39.5c-3.801,3.5-10.301,3.602-19.101,0.102
	c-13.301-5.2-24.2-15.602-34.7-25.7c-8.399-8-17.101-16.3-27-22c-19.199-11.102-44.601-15-67.8-10.5c-8.601,1.7-18.801,5-28,9.1
	c-4.7,2.102-9,5.301-13.101,8.301c-4.601,3.399-9.3,6.801-14.5,8.801c-12.399,4.6-26.8,2-39.3-0.801
	c-24.101-5.399-45.2-0.601-67.601,4.301c-4.6,1-9.3,2.1-14.2,3.1c-11,2.3-22.6,1.8-33.899,1.3c-16.8-0.699-34.1-1.398-50,6.801
	c-3,1.5-5.4,2.899-7.5,4.101c-9.2,5.2-12.3,6.899-27,5.8c-16.3-1.3-30,0.4-44.1,5.3c-10.101,3.602-15.4,8.301-21.4,13.801
	c-2.7,2.399-5.5,4.899-9,7.601c-6.1,4.7-14,7.2-21.7,9.5c-6.1,1.899-12.3,3.899-17.8,6.899c-4.3,2.399-7.6,5.301-10.8,8
	c-5.601,4.801-10.4,9-18.8,9.101C85.1,531.8,77.9,529,71,526.2c-5.8-2.3-11.8-4.602-17.7-5.4c-11.3-1.398-23.3,0-34.8,1.4
	c-4.5,0.5-9.3,1.1-13.7,1.5c-1.2,0.1-2.4,0.2-3.6,0.3v1.3c1.199-0.1,2.5-0.2,3.699-0.3c4.5-0.4,9.2-0.9,13.801-1.5
	c11.5-1.4,23.399-2.8,34.5-1.5c5.8,0.7,11.699,3,17.399,5.3C77.7,530.1,85,532.9,92.3,532.9c8.8-0.102,14.1-4.7,19.6-9.5
	c3.101-2.7,6.4-5.5,10.601-7.9c5.3-3,11.5-4.9,17.5-6.8c7.7-2.4,15.7-4.9,22.1-9.8c3.5-2.7,6.3-5.2,9.101-7.7c6-5.4,11.1-10,21-13.5
	c14.199-5,27.199-6.602,43.6-5.3c15.1,1.198,18.6-0.7,27.8-5.9c2.101-1.2,4.5-2.5,7.5-4.1c15.5-8.102,32.7-7.4,49.3-6.7
	c11.3,0.5,23,1,34.2-1.3c4.8-1,9.6-2.102,14.2-3.102c22.2-4.898,43.1-9.6,66.899-4.3c12.7,2.8,27.301,5.4,40,0.7
	c5.399-2,10.2-5.5,14.899-8.9c4.101-3,8.301-6.1,12.9-8.1c9.199-4.102,19.3-7.4,27.8-9.001c22.899-4.399,47.899-0.601,66.899,10.301
	c9.801,5.6,18.399,13.9,26.7,21.8C635.5,463.9,646.5,474.4,660,479.8c9.399,3.7,16.3,3.602,20.5-0.3c9-8.3,3.1-31.4,0.1-40.9
	c-7.1-23-14.5-46.8-12.8-71.6c0.8-11.5,4.8-19.2,11.8-23c21.2-11.5,65.2,13.3,88.9,26.699c3.899,2.201,7.3,4.101,9.8,5.399
	c17.899,9.302,37,7.7,53.399,5c20-3.399,40.399-10.1,60.101-16.6l2-0.6c3.8-1.302,7.899-2.9,12.101-4.602
	c11.399-4.601,24.199-9.898,35.699-8.2c11.801,1.7,21.101,10.5,25.5,24.101c5,15.399,2,32.399-7.199,41.399
	c-3.101,3.101-6.9,6-10.9,9.102c-13.8,10.7-29.399,22.8-18.199,42.3l0.199,0.3h0.4c13.899-0.1,25.5-0.7,37.399-6.6
	c2.601-1.301,5.101-2.7,7.601-4.102c9.5-5.398,17.8-10.1,29.5-5.8c8.6,3.101,12.3,11.3,15.6,18.5c2.9,6.3,5.601,12.2,11.001,13.8
	c4.399,1.3,10-0.2,17.6-4.898c4.601-2.801,8.7-6.4,12.601-9.801c4.5-4,9.301-8.101,14.801-11.101c7.399-4,14.899-5.3,22.8-6.6
	c5.3-0.9,10.8-1.802,16.101-3.7c20.8-7.102,36.899-27.7,46.699-43.7c6.9-11.2,11.301-24.601,15.5-37.5
	c6.101-18.5,12.5-37.601,26-50.8c12.601-12.2,27.4-18,43.101-24.1c7.7-3,15.601-6.1,23.2-10c19.6-10,30.5-31.7,37.8-49.5
	c4.2-10.3,3.899-21,3.601-31.3c-0.4-12-0.7-23.4,5.399-34.3c4.899-8.9,12.301-12.6,20-16.4c4.399-2.2,9-4.5,13.301-7.8
	c30.1-23.7,51.8-70,64.699-104.6c4.7-12.5,13.301-25,23-36.8V0H1438.3z"/>
<path opacity="0.2" fill="#111111" enable-background="new    " d="M770.5,580.5c-15.601-11.9-39.4,0.4-53.601,7.8l-0.7,0.3
	c-14.199,7.4-28,10.102-47.601,9.4c-5.5-0.2-11.8-1.5-18.5-2.8c-11.399-2.3-23.1-4.7-32.199-1.9c-4.7,1.4-7.7,3.9-9.101,7.2
	c-1.399,3.3-1,7.3,0.2,11.4h1.399c-1.2-4-1.601-7.802-0.399-10.9c1.199-3,3.899-5.1,8.3-6.5c8.7-2.7,20.3-0.3,31.5,1.9
	c6.7,1.3,13.101,2.6,18.7,2.8c19.8,0.7,33.8-2.102,48.3-9.5l0.7-0.4c13.899-7.2,37.3-19.3,52.199-7.898
	c6.301,4.8,8.101,12.8,8.601,18.698c0.3,3.802,0.101,7.802-0.5,11.802h1.3c0.601-3.9,0.801-8,0.5-11.9
	C779.1,594,777.1,585.6,770.5,580.5z"/>
<path opacity="0.2" fill="#111111" enable-background="new    " d="M458,123.1c27,7.4,56.5,11,90.3,11c17.899,0,36.7-1,57.7-3.1
	c3.3-0.3,6.699-0.7,10.3-1.2c8.399-1,17.101-2.1,25.7-2.1c12,0,21.399,2.1,29.5,6.6c13.3,7.3,20.5,24,22,50.9
	c0.399,6.5-1.301,11.4-3.101,16.7c-1,2.8-1.899,5.7-2.7,8.9c-4.399,19.6-1.199,37.8,9.301,52.5c0.3,0.5,0.699,1,1,1.5
	c2.5,3.5,5,7.1,8.699,9.3c16.101,9.1,37.5,11.5,56.399,12.7c3.601,0.2,7.4,0.4,11.601,0.4h1c7.7,0,15.5-0.3,23-0.5
	c7.899-0.2,16.101-0.5,24.2-0.5c10.601,0,19.399,0.4,27.8,1.4c5.101,0.6,10.301,1.3,15.801,2c6.6,0.9,13.399,1.8,20.199,2.5
	c16.399,1.6,31.199,0.1,44.101-4.6c5.2-1.9,9.7-5,14-8.1c4.101-2.9,8.3-5.8,13-7.7c2.7-1,5.5-2.3,8.2-3.5
	c7.3-3.3,14.898-6.6,22.6-7.2c12.2-0.9,15,7.8,17.9,17.1c1.5,4.7,3.1,9.6,6,13.5c3.898,5.2,9.8,8,17.199,8
	c6.601,0,14.199-2.2,20.699-6.1c11.4-6.8,20.7-16.5,27.801-28.9c1.101-2,2.199-4,3.399-6c8.5-15.4,17.301-31.3,33.4-31.3
	c0.3,0,0.699,0,1,0c13.6,0.5,15.199,12.9,16.6,24.9c1.301,10.1,2.5,19.7,11.5,19.7c1.9,0,4.101-0.4,6.601-1.3
	c11.5-4.1,22.301-25.3,34.899-50c13.2-25.9,28.101-55.1,46.801-70.1c4.399-3.5,9.601-6.5,15.101-9.7
	c12.899-7.5,26.199-15.2,28.6-29.8c1-6,0.4-11.2-0.199-15.9c-1.2-9.4-2.101-16.9,10.199-26.9c2.4-2,4.801-3.9,7.2-5.8
	c13.899-11.1,28.199-22.6,37-39.7c2.601-5,4.101-10.4,5-17.1c0.199-1.9,0.399-3.8,0.601-5.7h-1.301c-0.101,1.9-0.301,3.7-0.5,5.6
	c-0.801,6.6-2.301,11.7-4.801,16.6c-8.6,16.9-22.899,28.2-36.6,39.2c-2.4,1.9-4.801,3.9-7.2,5.8c-12.8,10.5-11.8,18.7-10.601,28.1
	c0.601,4.7,1.2,9.6,0.2,15.5c-2.301,14-15.399,21.6-28,28.9c-5.301,3.1-10.7,6.2-15.2,9.8c-19,15.1-33.899,44.5-47.199,70.5
	c-12.399,24.4-23.199,45.5-34.101,49.4c-2.3,0.8-4.399,1.2-6.199,1.2c-7.899,0-9-8.6-10.2-18.6c-1.5-12-3.199-25.5-17.899-26.1
	c-17.601-0.6-27.2,16.7-35.601,31.9c-1.1,2-2.199,4-3.3,6c-7,12.2-16.2,21.7-27.301,28.4c-6.199,3.7-13.699,6-20,6
	c-7,0-12.399-2.5-16.1-7.5c-2.7-3.7-4.301-8.5-5.7-13.1c-2.8-8.9-5.8-18.1-17.601-18.1c-0.601,0-1.199,0-1.8,0.1
	c-7.899,0.6-15.601,4-23,7.3c-2.801,1.3-5.5,2.5-8.2,3.5c-4.8,1.9-9.101,4.9-13.3,7.8c-4.301,3-8.7,6.1-13.7,7.9
	c-12.699,4.6-27.3,6.1-43.5,4.5c-6.8-0.7-13.601-1.6-20.101-2.5c-5.5-0.7-10.6-1.5-15.8-2c-8.5-0.9-17.3-1.4-28-1.4
	c-8.101,0-16.3,0.3-24.2,0.5c-7.5,0.2-15.3,0.5-23,0.5h-1c-4.199,0-8-0.1-11.6-0.3c-18.7-1.2-40-3.5-55.801-12.5
	c-3.5-2-5.899-5.5-8.3-8.9c-0.399-0.5-0.7-1-1-1.5c-10.2-14.4-13.399-32.2-9.101-51.5c0.7-3.2,1.7-6,2.601-8.8
	c1.8-5.4,3.5-10.4,3.199-17.2c-1.5-27.4-8.899-44.4-22.699-52c-8.301-4.6-17.899-6.7-30.2-6.7c-8.601,0-17.399,1-25.8,2.1
	c-3.5,0.4-6.899,0.8-10.301,1.2c-21,2.1-39.8,3.1-57.6,3.1c-33.601,0-63-3.6-89.9-11c-55.399-15.3-96.1-61.6-109-121.8h-1.2
	c5.3,23.9,15,46.4,28.5,65.3C397.1,94.1,425.199,114,458,123.1z"/>
<path opacity="0.2" fill="#111111" enable-background="new    " d="M424.5,62.3c43.3,38.5,98.3,45.8,150.8,50
	c6.3,0.5,12.7,0.7,19.2,0.7c17,0,34.8-1.7,54.5-5.3c5.6-1,12-3.8,18.699-6.8c9.101-4,18.601-8.2,26.899-8.2
	c3.301,0,6.101,0.6,8.601,2c8.601,4.5,8.301,14.7,8,24.6c-0.101,4.2-0.199,8.2,0.301,11.7c2.399,15.6,6.3,31.5,18,41.6
	c2.6,2.3,5.699,3.7,8.6,5.1c1.9,0.9,3.801,1.8,5.601,2.9c1.899,1.1,2.8,2.5,3,4.2c0.399,4.1-4.3,9-6.3,10.9
	c-3,2.8-6.601,5.3-10.4,7.9c-6.8,4.7-13.8,9.5-17.6,16.7c-3.801,7.3-4.301,13.8-1.5,19.3c3.5,6.9,12,11.8,23.3,13.5
	c15.8,2.4,32.101,2.8,48,3.3c7.399,0.2,15.101,0.4,22.601,0.8c27.899,1.5,49.101,1.6,69.3,0.3c54.601-3.6,98.3-12.4,137.601-27.7
	c36.5-14.2,74.101-34.1,118.399-62.6c42.301-27.3,73.601-53.3,98.301-82c22.199-25.8,39.399-55.7,55.699-85.1h-1.5
	c-16.199,29.1-33.199,58.7-55.199,84.2c-24.7,28.6-55.801,54.6-98,81.8c-44.301,28.5-81.801,48.4-118.2,62.5
	C972,243.8,928.4,252.6,874,256.2c-20.2,1.3-41.301,1.3-69.101-0.2c-7.5-0.4-15.2-0.6-22.7-0.9c-15.8-0.4-32.101-0.9-47.8-3.3
	c-10.899-1.6-19-6.3-22.301-12.8c-2.6-5.2-2.1-11.2,1.4-18.1c3.6-6.9,10.5-11.6,17.199-16.2c3.7-2.5,7.5-5.1,10.601-8
	c2.7-2.5,7.2-7.5,6.8-12c-0.199-2.1-1.399-3.9-3.6-5.2c-1.9-1.2-3.801-2.1-5.801-3c-3-1.4-5.8-2.7-8.3-4.9
	c-11.899-10.3-15.301-26.4-17.5-40.8c-0.5-3.4-0.399-7.3-0.301-11.4c0.301-9.8,0.601-20.9-8.699-25.8c-2.7-1.4-5.801-2.1-9.301-2.1
	c-8.6,0-18.199,4.2-27.399,8.3c-6.699,2.9-13,5.7-18.399,6.7c-19.601,3.5-37.3,5.2-54.2,5.2c-6.399,0-12.8-0.2-19.1-0.7
	c-52.4-4.2-107.101-11.4-150-49.7C407.699,45.6,394.4,24,384.9,0h-1.4C393,24.4,406.6,46.4,424.5,62.3z"/>
<path opacity="0.2" fill="#111111" enable-background="new    " d="M1049.199,612h11.601C1056.8,611.7,1052.9,611.6,1049.199,612z"
	/>
<path opacity="0.2" fill="#111111" enable-background="new    " d="M1419.5,265c0.899-18.2,2-38.8-10.801-47.8
	c-4.399-3.1-8.399-4.1-12-2.9c-8,2.5-12.301,14.5-15.801,24.1c-0.699,2.1-1.399,4-2.1,5.7c-4.101,10.2-9.5,17.8-14.7,25.1
	c-8,11.3-15.5,22-17,40.1c-1.199,15-1.6,30.3-2,45.2c-0.5,21-1,42.7-4,63.6c-4,28.7-17.199,31.102-39.199,35.102
	c-3.601,0.7-7.301,1.3-11.301,2.2c-29,6.198-49.899,13.6-65.8,23.5c-16,10-32.601,28.1-45.5,49.5c-1.4,2.3-2.801,4.6-4.2,6.898
	c-5.399,8.7-11,17.8-14.6,27.3c-1.2,3.2-2.101,6.302-3,9.302c-2.101,7.1-4,13.8-9.601,20.1c-11.2,12.5-28,17.7-45.7,19.9h8.7
	c14.8-2.802,28.399-8.302,38-19c5.8-6.5,7.8-13.302,9.899-20.602c0.899-3,1.7-6.1,2.899-9.2c3.5-9.398,9.101-18.398,14.5-27.1
	c1.4-2.3,2.801-4.6,4.2-6.9c12.8-21.3,29.199-39.198,45.101-49.1c15.5-9.7,36.8-17.3,65.3-23.3c4-0.9,7.7-1.5,11.3-2.2
	c22.5-4.1,36.101-6.6,40.2-36.2c2.899-21,3.5-42.7,4-63.7c0.399-14.898,0.8-30.198,2-45.1c1.5-17.8,8.899-28.3,16.8-39.5
	c5.2-7.4,10.7-15.1,14.801-25.4c0.699-1.7,1.399-3.6,2.101-5.7c3.399-9.4,7.601-21,14.899-23.3c3.3-1,6.8-0.1,10.899,2.7
	c12.2,8.6,11.101,28.8,10.2,46.7c-0.4,8.5-0.9,16.5,0.199,22.5c3.301,19.3,10.101,33.9,20.4,43.5v-1.8c-9.5-9.5-15.9-23.5-19-41.9
	C1418.699,281.3,1419.1,273.4,1419.5,265z"/>
<path opacity="0.2" fill="#111111" enable-background="new    " d="M491.5,596.5c-13.101-6.1-26.7-7.1-41-8.2
	c-3.101-0.2-6.301-0.5-9.5-0.7c-44.9-4.1-81.601-2.1-112.101,6.2c-13.3,3.602-33.399,10.4-49.1,18.2h3c15.2-7.3,33.8-13.6,46.399-17
	c30.4-8.3,66.9-10.3,111.601-6.2c3.2,0.3,6.399,0.5,9.5,0.8c14.2,1,27.6,2,40.5,8.102c4.3,2,8.8,5.1,13.6,8.398
	c2.9,2,5.9,4.102,8.9,5.9h2.6c-3.6-2-7.199-4.5-10.8-7C500.5,601.7,495.9,598.6,491.5,596.5z"/>
<path opacity="0.2" fill="#111111" enable-background="new    " d="M1.3,603.4c10.9,1.1,20.3,4.1,25.2,8.5l0.899-1
	C22.3,606.3,12.5,603.2,1.3,602.1V603.4z"/>
</svg>
